<svg version="1.1" id="Layer_1" xmlns="http://www.w3.org/2000/svg" xmlns:xlink="http://www.w3.org/1999/xlink" x="0px" y="0px"
	 width="100%" viewBox="0 0 300 474" enable-background="new 0 0 300 474" xml:space="preserve">
<path fill="#B3E5FC" opacity="1.000000" stroke="none" 
	d="
M1.000000,454.000000 
	C1.000000,338.979095 1.000000,223.958206 1.449366,108.466492 
	C18.329802,107.661018 34.760838,107.324585 51.191963,106.992882 
	C55.511097,106.905685 59.830257,106.809494 64.149895,106.759453 
	C70.421906,106.686790 76.694366,106.652275 82.846313,106.933937 
	C72.765678,123.762383 68.328537,141.737030 70.747375,160.755539 
	C71.940971,170.140427 75.851685,179.179733 78.431633,188.794296 
	C76.277710,194.502441 74.225098,199.791687 72.429085,204.419739 
	C67.933632,199.115112 63.755726,193.081955 58.490261,188.228729 
	C50.448990,180.816971 38.862625,182.777679 35.902615,194.910828 
	C34.053982,202.488434 37.044289,209.306076 38.275429,216.424561 
	C38.615704,218.392059 38.712288,220.401672 39.052326,223.649246 
	C36.464619,221.645157 35.166302,220.391190 33.650902,219.510925 
	C28.316515,216.412247 24.781141,218.362183 25.056725,224.511398 
	C25.193089,227.554153 26.089624,230.658203 27.154264,233.545731 
	C30.130129,241.616913 36.462536,246.051712 43.822590,246.066040 
	C115.107506,246.204803 186.392303,246.414856 257.677246,246.543198 
	C259.939819,246.547272 262.203613,245.891342 265.847626,245.330627 
	C256.204285,240.188522 247.685471,237.137634 238.229477,237.987411 
	C229.058914,238.811554 219.908859,239.863907 210.268341,240.866089 
	C209.254257,235.529129 205.333557,230.933121 199.421478,230.411087 
	C194.210846,229.951004 188.773499,232.058426 183.088623,233.095490 
	C183.088623,232.754242 183.088623,231.311386 183.462250,229.815887 
	C191.458420,225.545990 199.570267,222.011246 206.602127,216.970062 
	C221.445862,206.328415 230.936691,191.299210 235.128799,173.867004 
	C241.031006,149.323547 237.805573,125.678787 223.739273,104.215851 
	C234.068909,103.767235 243.943573,103.294655 253.823822,103.032196 
	C269.547241,102.614502 285.274414,102.336868 301.000000,102.000000 
	C301.000000,110.354233 301.000000,118.708466 300.537659,127.524429 
	C291.078613,127.885635 282.220001,128.639542 273.689819,131.425369 
	C273.726105,131.950256 273.762390,132.475128 273.798676,133.000000 
	C282.865784,133.000000 291.932892,133.000000 301.000000,133.000000 
	C301.000000,239.687561 301.000000,346.375122 300.531921,453.556702 
	C284.734680,454.050751 269.405548,454.050751 254.388550,454.050751 
	C256.626770,451.424255 258.785614,448.890930 260.944427,446.357635 
	C260.665985,446.138458 260.387543,445.919281 260.109100,445.700134 
	C255.705338,446.743561 251.301590,447.786987 246.979431,448.431396 
	C247.351395,446.082520 247.966263,444.118164 247.879608,442.185242 
	C247.300339,429.263702 246.590103,416.347748 245.844574,403.434479 
	C245.800186,402.665558 245.083588,401.935455 244.105560,400.123322 
	C238.219437,412.939636 232.457199,424.636810 227.487701,436.661591 
	C224.967087,442.760773 225.731674,443.159882 232.256790,445.230591 
	C236.255447,446.499542 240.198395,447.944061 243.832855,449.546967 
	C238.606293,450.194244 233.719116,450.733215 228.817566,450.956696 
	C226.565826,451.059357 225.272903,451.394745 225.782257,453.998840 
	C150.531616,454.016296 75.765808,454.008148 1.000000,454.000000 
M169.029053,364.059265 
	C169.029053,364.059265 169.071564,364.081635 168.353928,364.020264 
	C167.220749,363.674011 166.087585,363.327759 164.941849,362.234222 
	C164.988983,361.488647 165.036102,360.743042 165.761887,359.836243 
	C167.874420,354.940765 170.185486,350.119293 172.044617,345.129395 
	C173.969894,339.962067 171.735046,336.500946 166.354507,337.183563 
	C161.515717,337.797485 158.378922,336.084320 155.037827,333.113495 
	C150.849655,329.389465 146.582886,331.141815 144.505264,336.949585 
	C144.505264,336.949585 144.012527,337.006561 143.262314,337.021820 
	C142.189606,338.358978 141.116913,339.696167 140.006027,341.023529 
	C140.006027,341.023529 140.045532,341.047150 139.272873,341.011566 
	C137.811493,339.652802 136.350098,338.294037 134.941071,336.287598 
	C134.992676,335.857544 135.044296,335.427460 135.757141,334.831635 
	C137.962036,332.706696 140.166946,330.581757 142.884491,327.962738 
	C141.802490,326.859558 140.398178,325.427734 138.976410,323.247162 
	C139.013168,322.499481 139.049927,321.751831 139.885361,320.944000 
	C140.589966,319.510864 141.916061,318.069702 141.897629,316.645935 
	C141.783890,307.857330 141.367203,299.072632 141.029999,289.697296 
	C135.643463,290.473236 130.877670,289.378601 129.000000,295.000000 
	C129.000000,295.000000 129.006149,295.003204 128.378860,295.114929 
	C127.923828,295.753235 127.468796,296.391571 126.793839,297.451660 
	C126.600311,297.715149 126.350929,297.905396 125.397858,298.123657 
	C124.947487,298.787964 124.497124,299.452301 123.722221,300.694824 
	C120.120163,305.190857 116.509087,309.679688 112.918419,314.184814 
	C108.975067,319.132446 105.050499,324.095062 100.559868,329.016022 
	C100.374382,329.009430 100.188896,329.002869 100.024078,328.228912 
	C102.148018,323.279083 104.159653,318.277100 106.427605,313.394165 
	C108.671516,308.563019 117.908745,305.951630 111.101830,298.299683 
	C110.927841,298.104095 111.132797,297.609436 110.997322,297.335114 
	C110.299904,295.922913 109.548950,294.537140 108.816681,293.142120 
	C106.603760,294.532867 102.344337,292.281342 102.000793,297.001221 
	C102.000793,297.001221 101.978195,296.988831 101.245804,297.013977 
	C99.014313,298.948853 96.158447,300.500244 94.684311,302.900269 
	C91.821663,307.560974 90.331276,313.137512 87.125587,317.489960 
	C84.837753,320.596252 84.596558,322.466217 87.026764,325.674103 
	C87.008797,326.110779 86.990822,326.547485 86.509125,327.003052 
	C86.509125,327.003052 86.045189,327.015808 85.348610,327.146942 
	C83.123100,328.728424 82.126656,330.572876 84.049118,333.704346 
	C83.991318,334.137512 83.933517,334.570679 83.224060,335.173340 
	C81.817062,337.607269 78.552200,339.533234 81.050087,343.781219 
	C80.977737,344.517975 80.905380,345.254730 80.110252,346.034882 
	C75.877052,347.996246 76.493156,351.534760 77.141701,355.819733 
	C77.088676,356.546478 77.035660,357.273193 76.219894,358.139557 
	C74.314903,360.071411 71.819786,376.345306 73.110558,378.688477 
	C73.224800,378.895844 73.704933,378.901703 74.059723,379.654602 
	C74.372803,380.431793 74.685875,381.208954 75.027298,382.710327 
	C75.557938,385.618103 77.089165,385.405609 79.749924,383.962555 
	C80.492928,383.962891 81.235924,383.963257 82.558403,384.495117 
	C84.821091,384.626160 87.083778,384.757202 89.346466,384.888245 
	C82.949707,380.171539 90.164124,375.674469 87.703979,371.289673 
	C89.766258,371.639587 90.875198,371.827728 91.998085,372.790283 
	C92.873802,377.020508 95.840370,378.932068 100.684494,377.978638 
	C101.125015,378.019409 101.565536,378.060181 102.232025,378.812469 
	C107.837059,381.350250 110.645966,380.333252 113.196045,374.518250 
	C113.389534,374.264648 113.635735,374.082123 114.676559,373.973846 
	C117.989281,373.349731 119.900024,371.699341 119.120659,367.400513 
	C119.756157,366.600403 120.391655,365.800293 121.658218,364.874542 
	C122.087326,364.206329 122.516441,363.538116 123.008598,362.312439 
	C123.320717,361.868347 123.632835,361.424255 124.605461,360.870361 
	C125.038643,360.177094 125.471825,359.483826 125.889275,358.394135 
	C125.889275,358.394135 125.938705,358.000519 126.651802,357.904663 
	C130.755310,356.648926 129.838379,353.761627 128.930359,350.171875 
	C129.293671,349.115234 129.656967,348.058563 130.695511,346.906708 
	C132.154678,346.555664 133.613846,346.204620 135.073013,345.853546 
	C134.700256,347.281616 134.124939,348.692810 134.004395,350.141846 
	C133.842148,352.092133 134.030563,354.071533 134.062698,356.867401 
	C134.000366,358.247223 133.938034,359.627014 133.165924,361.239746 
	C133.127319,364.191193 132.306992,367.414673 133.218964,370.035339 
	C134.921204,374.926941 141.362244,375.139740 144.916885,370.403625 
	C144.916885,370.403625 144.974045,370.010651 145.399963,369.758636 
	C145.666855,369.550140 145.861862,369.288147 145.989014,369.001221 
	C145.989014,369.001221 145.971268,368.973145 146.730896,368.986542 
	C148.229797,368.293823 149.728683,367.601074 151.554932,366.757050 
	C152.244720,368.004669 153.411316,369.444885 153.882584,371.084839 
	C155.775803,377.673126 164.142349,379.947632 169.246017,375.357239 
	C171.580765,373.257294 174.446579,371.747772 177.532394,369.985504 
	C177.532394,369.985504 177.992996,370.007477 178.154510,370.689545 
	C180.023880,372.733551 181.909927,374.546936 184.931290,371.080811 
	C190.430191,370.030731 194.890305,367.706329 196.963409,360.748840 
	C193.417953,362.939423 190.725845,364.602783 187.280579,366.127441 
	C186.516022,366.103149 185.751465,366.078827 184.985718,365.189911 
	C185.361862,362.183472 185.738022,359.177063 186.697617,355.956146 
	C187.093445,355.296906 187.489273,354.637695 187.980850,353.232574 
	C189.565826,349.665070 191.402237,346.181549 192.633591,342.495911 
	C193.284622,340.547211 192.882492,338.246704 192.983444,335.274872 
	C192.144333,333.898529 191.305206,332.522156 190.466095,331.145813 
	C188.342438,332.627228 184.834732,333.088135 186.001099,337.637451 
	C185.674240,338.094299 185.347382,338.551147 184.306442,339.106049 
	C181.296143,343.192047 178.032913,347.122345 175.381165,351.429108 
	C174.035049,353.615356 173.790955,356.480164 173.011810,359.021332 
	C173.011810,359.021332 173.053207,359.048584 172.338989,359.114624 
	C171.250885,360.757904 170.162781,362.401184 169.029053,364.059265 
M205.909088,357.810272 
	C203.099380,364.915741 201.233063,372.157684 195.025146,377.857056 
	C187.537186,384.731628 181.260880,392.980927 174.836273,400.938843 
	C170.788742,405.952362 171.943832,411.665375 176.995712,415.286682 
	C181.437210,418.470459 188.951126,417.655457 191.887772,413.355835 
	C193.928711,410.367676 195.826355,407.160370 197.098038,403.790558 
	C201.021729,393.393585 204.559265,382.851379 208.393692,372.419586 
	C208.985397,370.809814 210.099854,369.193115 211.399261,368.075989 
	C218.069901,362.341125 224.938690,356.836029 231.577484,351.065704 
	C232.557098,350.214233 232.678665,348.375549 233.197235,346.993652 
	C231.937073,347.340912 230.440323,347.366119 229.456131,348.089050 
	C224.075424,352.041565 218.820663,356.165466 213.522598,360.230469 
	C214.382828,355.984863 216.384476,352.408630 217.757492,348.605499 
	C218.354721,346.951263 218.086151,343.364075 217.475876,343.186951 
	C215.327850,342.563507 211.788391,342.070343 210.706467,343.269165 
	C206.668060,347.743958 203.395660,352.910065 199.222290,358.071259 
	C199.070694,358.947357 198.919083,359.823456 198.767471,360.699524 
	C199.553436,360.169617 200.339401,359.639709 201.664764,358.813965 
	C202.434464,358.168518 203.204147,357.523071 204.631744,356.936462 
	C205.069107,356.979523 205.506485,357.022583 205.909088,357.810272 
z"/>
<path fill="#96DBFC" opacity="1.000000" stroke="none" 
	d="
M301.000000,101.531342 
	C285.274414,102.336868 269.547241,102.614502 253.823822,103.032196 
	C243.943573,103.294655 234.068909,103.767235 223.506714,104.010826 
	C222.428299,103.344856 222.061172,102.791634 221.637573,102.285713 
	C216.154175,95.736649 211.301147,88.504257 202.918045,84.754433 
	C202.796249,84.133179 202.738190,83.776596 202.966003,83.105927 
	C204.026215,82.536720 204.786606,82.118469 205.576965,82.050919 
	C217.779297,81.008018 230.016327,80.279030 242.177124,78.883247 
	C247.789169,78.239113 254.171310,79.112030 259.854218,72.610123 
	C252.806976,71.076622 246.987442,69.401634 241.050003,68.601753 
	C227.937790,66.835289 214.783630,65.328590 201.613281,64.062119 
	C191.396408,63.079655 181.123627,62.693916 170.885483,61.914181 
	C154.549881,60.670055 138.238754,59.037216 121.887077,58.090008 
	C104.504555,57.083084 87.089371,56.606926 69.683929,56.037029 
	C46.791595,55.287491 23.894850,54.672722 1.000000,54.000000 
	C1.000000,36.353271 1.000000,18.706543 1.000004,1.055171 
	C101.000008,1.050528 201.000015,1.050528 301.000000,1.050528 
	C301.000000,12.421598 301.000000,23.742140 300.531342,35.532066 
	C281.119598,36.334427 262.175385,36.614323 243.233871,37.021370 
	C232.779541,37.246021 222.320236,37.518440 211.883331,38.119259 
	C208.418777,38.318699 205.017044,39.609158 201.586578,40.400822 
	C201.621246,41.021324 201.655899,41.641823 201.690567,42.262321 
	C234.658737,46.111462 267.782440,47.729103 301.000000,48.000000 
	C301.000000,65.687561 301.000000,83.375122 301.000000,101.531342 
z"/>
<path fill="#B3E5FA" opacity="1.000000" stroke="none" 
	d="
M1.000000,54.468658 
	C23.894850,54.672722 46.791595,55.287491 69.683929,56.037029 
	C87.089371,56.606926 104.504555,57.083084 121.887077,58.090008 
	C138.238754,59.037216 154.549881,60.670055 170.885483,61.914181 
	C181.123627,62.693916 191.396408,63.079655 201.613281,64.062119 
	C214.783630,65.328590 227.937790,66.835289 241.050003,68.601753 
	C246.987442,69.401634 252.806976,71.076622 259.854218,72.610123 
	C254.171310,79.112030 247.789169,78.239113 242.177124,78.883247 
	C230.016327,80.279030 217.779297,81.008018 205.576965,82.050919 
	C204.786606,82.118469 204.026215,82.536720 202.645035,82.996689 
	C181.418381,69.060051 158.842712,65.329613 134.562057,70.411903 
	C122.260567,72.986786 111.728714,79.183578 101.045181,86.118698 
	C67.362343,86.386887 34.181171,86.693443 1.000000,87.000000 
	C1.000000,76.312439 1.000000,65.624878 1.000000,54.468658 
z"/>
<path fill="#26C5D9" opacity="1.000000" stroke="none" 
	d="
M1.000001,471.000000 
	C1.000000,468.299988 1.000000,465.599976 1.468598,462.458466 
	C101.624794,462.011322 201.312393,462.005676 301.000000,462.000000 
	C301.000000,464.041656 301.000000,466.083344 300.531525,468.561707 
	C286.309296,469.652557 272.555267,470.301941 258.801819,470.962219 
	C244.050095,471.670380 229.295105,472.323578 214.551483,473.173035 
	C212.339905,473.300446 210.182480,474.367584 208.000000,475.000000 
	C188.312439,475.000000 168.624878,475.000000 148.171173,474.746521 
	C141.833405,473.802582 136.275665,472.687317 130.687454,472.504913 
	C116.476402,472.040955 102.252274,471.903595 88.032272,471.815735 
	C79.951378,471.765778 71.777542,472.900452 63.806480,472.029266 
	C50.301281,470.553192 36.904678,468.050964 23.236795,469.048248 
	C15.816564,469.589630 8.411762,470.342529 1.000001,471.000000 
z"/>
<path fill="#09ABC1" opacity="1.000000" stroke="none" 
	d="
M301.000000,461.562500 
	C201.312393,462.005676 101.624794,462.011322 1.468598,462.008484 
	C1.000000,459.629425 1.000000,457.258881 1.000000,454.444153 
	C75.765808,454.008148 150.531616,454.016296 226.190536,454.006592 
	C251.722427,454.325836 276.361206,454.662903 301.000000,455.000000 
	C301.000000,457.041656 301.000000,459.083344 301.000000,461.562500 
z"/>
<path fill="#97DBFA" opacity="1.000000" stroke="none" 
	d="
M1.000000,87.468536 
	C34.181171,86.693443 67.362343,86.386887 100.838333,86.410019 
	C95.077652,93.360291 89.022148,99.980888 82.966644,106.601486 
	C76.694366,106.652275 70.421906,106.686790 64.149895,106.759453 
	C59.830257,106.809494 55.511097,106.905685 51.191963,106.992882 
	C34.760838,107.324585 18.329802,107.661018 1.449366,107.997833 
	C1.000000,101.312355 1.000000,94.624710 1.000000,87.468536 
z"/>
<path fill="#B1E5FD" opacity="1.000000" stroke="none" 
	d="
M301.000000,47.539364 
	C267.782440,47.729103 234.658737,46.111462 201.690567,42.262321 
	C201.655899,41.641823 201.621246,41.021324 201.586578,40.400822 
	C205.017044,39.609158 208.418777,38.318699 211.883331,38.119259 
	C222.320236,37.518440 232.779541,37.246021 243.233871,37.021370 
	C262.175385,36.614323 281.119598,36.334427 300.531342,36.000725 
	C301.000000,39.692909 301.000000,43.385818 301.000000,47.539364 
z"/>
<path fill="#77DEEB" opacity="1.000000" stroke="none" 
	d="
M208.468658,475.000000 
	C210.182480,474.367584 212.339905,473.300446 214.551483,473.173035 
	C229.295105,472.323578 244.050095,471.670380 258.801819,470.962219 
	C272.555267,470.301941 286.309296,469.652557 300.531525,468.999207 
	C301.000000,470.991119 301.000000,472.982239 301.000000,475.000000 
	C270.312439,475.000000 239.624878,475.000000 208.468658,475.000000 
z"/>
<path fill="#57DBF0" opacity="1.000000" stroke="none" 
	d="
M1.000001,471.333344 
	C8.411762,470.342529 15.816564,469.589630 23.236795,469.048248 
	C36.904678,468.050964 50.301281,470.553192 63.806480,472.029266 
	C71.777542,472.900452 79.951378,471.765778 88.032272,471.815735 
	C102.252274,471.903595 116.476402,472.040955 130.687454,472.504913 
	C136.275665,472.687317 141.833405,473.802582 147.702515,474.746521 
	C143.643097,475.000000 139.286194,475.000000 134.157501,474.733032 
	C119.459724,473.998718 105.536049,473.367035 91.606224,473.170563 
	C87.746857,473.116119 83.869240,474.354675 80.000000,475.000000 
	C73.978851,475.000000 67.957695,475.000000 61.200306,474.729492 
	C56.914177,473.777985 53.373352,473.044922 49.812843,472.424896 
	C33.508865,469.585724 17.251669,471.150757 1.000000,473.000000 
	C1.000000,472.555542 1.000000,472.111115 1.000001,471.333344 
z"/>
<path fill="#1499A9" opacity="1.000000" stroke="none" 
	d="
M301.000000,454.750000 
	C276.361206,454.662903 251.722427,454.325836 226.675354,453.980957 
	C225.272903,451.394745 226.565826,451.059357 228.817566,450.956696 
	C233.719116,450.733215 238.606293,450.194244 244.179169,449.532349 
	C245.538589,449.130432 246.218216,448.980408 246.897842,448.830383 
	C251.301590,447.786987 255.705338,446.743561 260.109100,445.700134 
	C260.387543,445.919281 260.665985,446.138458 260.944427,446.357635 
	C258.785614,448.890930 256.626770,451.424255 254.388550,454.050751 
	C269.405548,454.050751 284.734680,454.050751 300.531921,454.025391 
	C301.000000,454.000000 301.000000,454.500000 301.000000,454.750000 
z"/>
<path fill="#29C6D8" opacity="1.000000" stroke="none" 
	d="
M1.000002,473.500000 
	C17.251669,471.150757 33.508865,469.585724 49.812843,472.424896 
	C53.373352,473.044922 56.914177,473.777985 60.732033,474.729492 
	C42.154469,475.000000 23.308880,475.017578 4.463542,474.957184 
	C3.308022,474.953461 2.154473,474.333313 1.000002,473.500000 
z"/>
<path fill="#E7F8FF" opacity="1.000000" stroke="none" 
	d="
M301.000000,132.583344 
	C291.932892,133.000000 282.865784,133.000000 273.798676,133.000000 
	C273.762390,132.475128 273.726105,131.950256 273.689819,131.425369 
	C282.220001,128.639542 291.078613,127.885635 300.537659,127.993073 
	C301.000000,129.388885 301.000000,130.777786 301.000000,132.583344 
z"/>
<path fill="#31C3D7" opacity="1.000000" stroke="none" 
	d="
M80.468658,475.000000 
	C83.869240,474.354675 87.746857,473.116119 91.606224,473.170563 
	C105.536049,473.367035 119.459724,473.998718 133.692871,474.733032 
	C116.312439,475.000000 98.624878,475.000000 80.468658,475.000000 
z"/>
<path fill="#F2F9FD" opacity="1.000000" stroke="none" 
	d="
M183.088623,229.868546 
	C183.088623,231.311386 183.088623,232.754242 183.088623,233.095490 
	C188.773499,232.058426 194.210846,229.951004 199.421478,230.411087 
	C205.333557,230.933121 209.254257,235.529129 210.268341,240.866089 
	C219.908859,239.863907 229.058914,238.811554 238.229477,237.987411 
	C247.685471,237.137634 256.204285,240.188522 265.847626,245.330627 
	C262.203613,245.891342 259.939819,246.547272 257.677246,246.543198 
	C186.392303,246.414856 115.107506,246.204803 43.822590,246.066040 
	C36.462536,246.051712 30.130129,241.616913 27.154264,233.545731 
	C26.089624,230.658203 25.193089,227.554153 25.056725,224.511398 
	C24.781141,218.362183 28.316515,216.412247 33.650902,219.510925 
	C35.166302,220.391190 36.464619,221.645157 39.052326,223.649246 
	C38.712288,220.401672 38.615704,218.392059 38.275429,216.424561 
	C37.044289,209.306076 34.053982,202.488434 35.902615,194.910828 
	C38.862625,182.777679 50.448990,180.816971 58.490261,188.228729 
	C63.755726,193.081955 67.933632,199.115112 72.429085,204.419739 
	C74.225098,199.791687 76.277710,194.502441 78.701462,188.809540 
	C79.976410,187.736328 81.049606,187.210236 81.757317,186.374619 
	C87.612061,179.461670 94.983765,176.844925 104.204102,178.564148 
	C107.527237,181.191269 110.518860,183.611526 113.457855,186.322662 
	C113.893425,187.187241 114.381622,187.760925 114.846298,188.723236 
	C115.097649,190.098785 115.372513,191.085693 115.554909,192.345062 
	C115.931641,193.194824 116.400848,193.772110 116.796974,194.669556 
	C116.760704,195.642502 116.797516,196.295288 116.622864,197.299347 
	C116.103989,203.570633 115.796570,209.490616 115.418312,216.774872 
	C121.905830,209.744995 128.349152,206.971481 136.205795,211.100769 
	C138.232513,212.165970 140.100586,213.533005 142.172668,214.906662 
	C142.303802,215.051941 142.665634,215.201263 142.768616,215.539795 
	C145.243210,221.375305 147.614822,226.872269 150.131989,232.706635 
	C151.462219,231.021820 152.948532,229.139297 154.618103,227.167587 
	C155.024811,226.907074 155.173477,226.685608 155.593384,226.307739 
	C169.795166,218.066849 175.076996,218.780258 183.088623,229.868546 
z"/>
<path fill="#F6FDFD" opacity="1.000000" stroke="none" 
	d="
M81.978928,383.963562 
	C81.235924,383.963257 80.492928,383.962891 79.057907,383.921509 
	C77.243576,383.249023 76.121262,382.617584 74.998947,381.986145 
	C74.685875,381.208954 74.372803,380.431793 74.052162,378.909424 
	C75.023941,371.442780 76.003288,364.721375 76.982635,357.999939 
	C77.035660,357.273193 77.088676,356.546478 77.383850,355.204895 
	C78.695007,351.723877 79.764015,348.857666 80.833031,345.991486 
	C80.905380,345.254730 80.977737,344.517975 81.317909,343.168915 
	C82.349068,340.039032 83.112396,337.521423 83.875717,335.003845 
	C83.933517,334.570679 83.991318,334.137512 84.295197,333.169769 
	C85.042572,330.762054 85.543877,328.888947 86.045181,327.015808 
	C86.045189,327.015808 86.509125,327.003052 87.053833,327.053711 
	C88.061783,327.733887 88.525017,328.363403 88.739113,329.239227 
	C87.792198,331.737061 87.094421,333.988586 86.396652,336.240112 
	C87.045013,336.361237 87.693375,336.482361 88.341728,336.603485 
	C88.565895,334.073853 88.790054,331.544189 89.259155,328.785828 
	C93.033600,323.382782 96.691643,318.265289 97.556023,310.522064 
	C95.201218,314.086212 93.542236,316.597198 91.868347,318.682922 
	C92.134605,309.695343 97.657288,303.628143 101.978195,296.988831 
	C101.978195,296.988831 102.000793,297.001221 102.311798,296.871918 
	C104.716858,297.621582 108.019531,298.021240 108.605377,299.498352 
	C109.373734,301.435669 108.383934,304.378754 107.476479,306.615906 
	C104.435944,314.111786 101.095695,321.486115 97.618011,329.147278 
	C96.521240,331.888916 95.676666,334.390289 94.506454,337.011719 
	C92.721962,340.994720 91.263115,344.857666 89.804268,348.720642 
	C90.323883,348.919220 90.843506,349.117798 91.363121,349.316376 
	C93.223007,345.528168 95.082893,341.739960 96.999023,337.603760 
	C98.409424,334.520905 99.763588,331.786011 101.117744,329.051147 
	C105.050499,324.095062 108.975067,319.132446 112.918419,314.184814 
	C116.509087,309.679688 120.120163,305.190857 124.187408,300.317932 
	C125.116959,299.301544 125.581322,298.661987 126.045685,298.022430 
	C126.350929,297.905396 126.600311,297.715149 127.212311,297.175842 
	C128.089233,296.267761 128.547699,295.635468 129.006149,295.003204 
	C129.006149,295.003204 129.000000,295.000000 129.391663,294.940063 
	C136.214508,293.062134 138.351395,293.960602 138.942856,300.350952 
	C139.575058,307.181274 139.086197,314.115356 139.086685,321.004150 
	C139.049927,321.751831 139.013168,322.499481 138.719147,323.860168 
	C137.339874,327.981232 136.217880,331.489319 135.095886,334.997406 
	C135.044296,335.427460 134.992676,335.857544 134.667877,336.844147 
	C132.936539,340.601105 131.478409,343.801514 130.020264,347.001923 
	C129.656967,348.058563 129.293671,349.115234 128.684753,350.771545 
	C127.605652,353.580994 126.772179,355.790741 125.938705,358.000519 
	C125.938705,358.000519 125.889275,358.394135 125.595657,358.697327 
	C124.849686,359.660400 124.397331,360.320282 123.944969,360.980164 
	C123.632835,361.424255 123.320717,361.868347 122.675629,362.683197 
	C121.904160,363.702698 121.465660,364.351440 121.027161,365.000183 
	C120.391655,365.800293 119.756157,366.600403 118.786133,367.863159 
	C116.945938,370.207428 115.440285,372.089081 113.934631,373.970734 
	C113.635735,374.082123 113.389534,374.264648 112.724304,374.794373 
	C108.837059,376.080597 105.421555,377.090759 102.006058,378.100922 
	C101.565536,378.060181 101.125015,378.019409 100.133492,377.726471 
	C97.724068,375.979828 95.865646,374.485352 94.195663,372.761963 
	C94.936607,372.337952 95.489105,372.142883 96.327560,372.195465 
	C101.479424,374.288452 104.607994,371.880768 106.944115,368.012817 
	C109.425674,363.904053 111.773605,359.708679 114.033859,355.473175 
	C122.149643,340.264954 127.178619,323.952728 130.966537,307.227844 
	C131.310272,305.710144 130.618500,303.957886 130.407623,302.314575 
	C128.799789,303.248444 126.750191,303.825317 125.658585,305.176300 
	C120.144585,312.000427 114.181427,318.605408 109.682930,326.074493 
	C101.919327,338.964844 94.816437,352.283569 88.060745,365.736115 
	C85.215775,371.401276 83.958145,377.863617 81.978928,383.963562 
z"/>
<path fill="#B6E6FA" opacity="1.000000" stroke="none" 
	d="
M82.268669,384.229340 
	C83.958145,377.863617 85.215775,371.401276 88.060745,365.736115 
	C94.816437,352.283569 101.919327,338.964844 109.682930,326.074493 
	C114.181427,318.605408 120.144585,312.000427 125.658585,305.176300 
	C126.750191,303.825317 128.799789,303.248444 130.407623,302.314575 
	C130.618500,303.957886 131.310272,305.710144 130.966537,307.227844 
	C127.178619,323.952728 122.149643,340.264954 114.033859,355.473175 
	C111.773605,359.708679 109.425674,363.904053 106.944115,368.012817 
	C104.607994,371.880768 101.479424,374.288452 96.180504,371.884430 
	C94.380058,368.902130 93.012627,366.478485 91.645187,364.054871 
	C91.165245,364.276398 90.685303,364.497925 90.205360,364.719452 
	C90.813187,367.139069 91.421021,369.558716 92.017548,371.987122 
	C92.006248,371.995941 91.984146,372.015869 91.984146,372.015869 
	C90.875198,371.827728 89.766258,371.639587 87.703979,371.289673 
	C90.164124,375.674469 82.949707,380.171539 89.346466,384.888245 
	C87.083778,384.757202 84.821091,384.626160 82.268669,384.229340 
z"/>
<path fill="#F6FDFD" opacity="1.000000" stroke="none" 
	d="
M186.114166,356.170624 
	C185.738022,359.177063 185.361862,362.183472 185.051941,365.930267 
	C186.090012,366.535797 187.061874,366.400970 188.033737,366.266113 
	C190.725845,364.602783 193.417953,362.939423 196.963409,360.748840 
	C194.890305,367.706329 190.430191,370.030731 184.148987,371.062317 
	C181.575470,370.698364 179.784225,370.352936 177.992996,370.007477 
	C177.992996,370.007477 177.532394,369.985504 177.284836,369.587067 
	C177.013016,368.143341 176.988754,367.098083 176.979980,365.717224 
	C176.894318,364.543518 176.793182,363.705414 176.541092,361.616638 
	C175.674896,363.483490 175.331818,364.222900 174.831818,365.258545 
	C173.013306,367.626373 171.407135,369.745483 169.679871,371.760834 
	C164.116272,378.252350 158.450317,377.281281 155.786942,369.139557 
	C155.005310,366.750183 155.284866,363.913727 155.517883,361.321686 
	C155.733093,358.927704 156.537659,356.586731 157.411926,352.794006 
	C153.002563,359.029633 149.486923,364.001404 145.971283,368.973145 
	C145.971268,368.973145 145.989014,369.001221 145.768173,369.105774 
	C145.272858,369.417389 145.081757,369.684174 144.974045,370.010651 
	C144.974045,370.010651 144.916885,370.403625 144.491867,370.648254 
	C135.358200,371.166962 134.242004,370.084198 133.875702,361.006836 
	C133.938034,359.627014 134.000366,358.247223 134.299667,356.180908 
	C136.372940,350.678650 138.209229,345.862885 140.045532,341.047150 
	C140.045532,341.047150 140.006027,341.023529 140.309631,340.887634 
	C141.746338,339.503326 142.879425,338.254944 144.012512,337.006561 
	C144.012527,337.006561 144.505264,336.949585 145.068451,336.777222 
	C152.068787,332.397095 153.902206,333.037109 159.598618,341.679901 
	C160.374008,341.164246 161.087296,340.381561 161.934464,340.189545 
	C163.802917,339.766144 166.501282,338.766968 167.461853,339.605530 
	C168.780563,340.756683 169.592346,343.550690 169.229568,345.361969 
	C168.236893,350.318481 166.515869,355.129089 165.083237,359.997467 
	C165.036102,360.743042 164.988983,361.488647 164.714752,362.897278 
	C164.487640,365.288818 164.487640,367.017303 164.487640,368.745789 
	C165.056458,368.884888 165.625275,369.023956 166.194092,369.163055 
	C167.153244,367.469238 168.112411,365.775452 169.071564,364.081635 
	C169.071564,364.081635 169.029053,364.059265 169.345490,363.904663 
	C170.792343,362.182892 171.922775,360.615723 173.053192,359.048584 
	C173.053207,359.048584 173.011810,359.021332 173.327927,358.867737 
	C177.436203,352.145416 181.228348,345.576691 185.020508,339.007965 
	C185.347382,338.551147 185.674240,338.094299 186.423828,337.274658 
	C188.882980,336.642944 190.919418,336.373962 192.955841,336.105011 
	C192.882492,338.246704 193.284622,340.547211 192.633591,342.495911 
	C191.402237,346.181549 189.565826,349.665070 187.627075,353.679047 
	C186.886917,354.807220 186.500549,355.488922 186.114166,356.170624 
M145.948181,361.566589 
	C148.570312,357.963806 151.193848,354.362030 153.814240,350.757965 
	C156.432602,347.156708 156.170685,342.354584 153.147629,338.467072 
	C148.786880,340.993164 141.213196,356.683411 142.087494,361.628967 
	C142.656891,364.849884 144.039154,364.086792 145.948181,361.566589 
z"/>
<path fill="#F3FCFD" opacity="1.000000" stroke="none" 
	d="
M199.835876,357.816803 
	C203.395660,352.910065 206.668060,347.743958 210.706467,343.269165 
	C211.788391,342.070343 215.327850,342.563507 217.475876,343.186951 
	C218.086151,343.364075 218.354721,346.951263 217.757492,348.605499 
	C216.384476,352.408630 214.382828,355.984863 213.522598,360.230469 
	C218.820663,356.165466 224.075424,352.041565 229.456131,348.089050 
	C230.440323,347.366119 231.937073,347.340912 233.197235,346.993652 
	C232.678665,348.375549 232.557098,350.214233 231.577484,351.065704 
	C224.938690,356.836029 218.069901,362.341125 211.399261,368.075989 
	C210.099854,369.193115 208.985397,370.809814 208.393692,372.419586 
	C204.559265,382.851379 201.021729,393.393585 197.098038,403.790558 
	C195.826355,407.160370 193.928711,410.367676 191.887772,413.355835 
	C188.951126,417.655457 181.437210,418.470459 176.995712,415.286682 
	C171.943832,411.665375 170.788742,405.952362 174.836273,400.938843 
	C181.260880,392.980927 187.537186,384.731628 195.025146,377.857056 
	C201.233063,372.157684 203.099380,364.915741 206.029510,357.175720 
	C205.910583,356.081848 205.671234,355.622559 205.431885,355.163208 
	C204.945847,355.734680 204.459824,356.306122 203.973831,356.877594 
	C203.204147,357.523071 202.434464,358.168518 201.138306,358.790436 
	C200.353180,358.450195 200.094528,358.133514 199.835876,357.816803 
M194.786209,390.218475 
	C195.842484,387.155853 196.898743,384.093231 197.955017,381.030609 
	C197.529526,380.757385 197.104034,380.484192 196.678543,380.210968 
	C192.465790,385.417664 188.049133,390.476471 184.122589,395.890717 
	C182.023849,398.784637 180.339371,402.163574 179.325226,405.578217 
	C178.849792,407.179016 180.402740,409.382202 181.036438,411.312408 
	C182.728775,410.341797 185.171967,409.786987 185.980530,408.326935 
	C189.104156,402.686401 191.706116,396.756958 194.786209,390.218475 
z"/>
<path fill="#EEDA5A" opacity="1.000000" stroke="none" 
	d="
M103.872581,178.357300 
	C94.983765,176.844925 87.612061,179.461670 81.757317,186.374619 
	C81.049606,187.210236 79.976410,187.736328 78.802780,188.390656 
	C75.851685,179.179733 71.940971,170.140427 70.747375,160.755539 
	C68.328537,141.737030 72.765678,123.762383 82.846313,106.933945 
	C89.022148,99.980888 95.077652,93.360291 101.340012,86.448380 
	C111.728714,79.183578 122.260567,72.986786 134.562057,70.411903 
	C158.842712,65.329613 181.418381,69.060051 202.359146,83.310776 
	C202.738190,83.776596 202.796249,84.133179 202.848053,84.829330 
	C202.841812,85.168907 202.701828,85.318710 202.361404,85.220474 
	C192.292313,81.176064 183.754715,74.437538 172.877991,73.127144 
	C167.558105,72.486221 162.371994,70.518021 157.053436,70.126068 
	C144.025726,69.165985 131.723495,72.799110 120.125053,78.211754 
	C116.336647,79.979698 109.889198,79.783058 110.265137,85.189888 
	C96.622993,90.218643 89.402382,100.887505 83.337196,111.497368 
	C70.142685,134.578613 68.093239,158.869156 79.569237,184.297882 
	C86.117516,180.038071 91.820465,174.706512 100.198914,176.222000 
	C101.568268,177.089157 102.720421,177.723221 103.872581,178.357300 
z"/>
<path fill="#F8FDFD" opacity="1.000000" stroke="none" 
	d="
M246.979431,448.431366 
	C246.218216,448.980408 245.538589,449.130432 244.512665,449.295105 
	C240.198395,447.944061 236.255447,446.499542 232.256790,445.230591 
	C225.731674,443.159882 224.967087,442.760773 227.487701,436.661591 
	C232.457199,424.636810 238.219437,412.939636 244.105560,400.123322 
	C245.083588,401.935455 245.800186,402.665558 245.844574,403.434479 
	C246.590103,416.347748 247.300339,429.263702 247.879608,442.185242 
	C247.966263,444.118164 247.351395,446.082520 246.979431,448.431366 
z"/>
<path fill="#EEDA5A" opacity="1.000000" stroke="none" 
	d="
M183.462250,229.815887 
	C175.076996,218.780258 169.795166,218.066849 155.567535,225.936966 
	C155.794601,224.924637 156.273941,224.022141 157.010666,223.452576 
	C166.466751,216.142014 173.959930,216.913162 182.719467,225.830978 
	C183.400833,226.524658 185.323746,226.773544 186.238998,226.333496 
	C191.126678,223.983673 196.139786,221.740799 200.624786,218.737152 
	C212.670792,210.669800 221.181885,199.510406 227.674545,186.649719 
	C232.813110,176.471191 234.777145,165.452789 235.773987,154.361801 
	C236.296692,148.546341 234.966461,142.485138 233.947540,136.626297 
	C231.604874,123.155754 226.108276,111.079575 216.929153,100.827164 
	C212.250076,95.600960 207.448212,90.484673 202.701828,85.318710 
	C202.701828,85.318710 202.841812,85.168907 202.911804,85.094009 
	C211.301147,88.504257 216.154175,95.736649 221.637573,102.285713 
	C222.061172,102.791634 222.428299,103.344856 223.054230,104.081123 
	C237.805573,125.678787 241.031006,149.323547 235.128799,173.867004 
	C230.936691,191.299210 221.445862,206.328415 206.602127,216.970062 
	C199.570267,222.011246 191.458420,225.545990 183.462250,229.815887 
z"/>
<path fill="#B6E6FA" opacity="1.000000" stroke="none" 
	d="
M176.964508,366.052795 
	C176.988754,367.098083 177.013016,368.143341 177.054413,369.579529 
	C174.446579,371.747772 171.580765,373.257294 169.246017,375.357239 
	C164.142349,379.947632 155.775803,377.673126 153.882584,371.084839 
	C153.411316,369.444885 152.244720,368.004669 151.554932,366.757050 
	C149.728683,367.601074 148.229797,368.293823 146.351089,368.979858 
	C149.486923,364.001404 153.002563,359.029633 157.411926,352.794006 
	C156.537659,356.586731 155.733093,358.927704 155.517883,361.321686 
	C155.284866,363.913727 155.005310,366.750183 155.786942,369.139557 
	C158.450317,377.281281 164.116272,378.252350 169.679871,371.760834 
	C171.407135,369.745483 173.013306,367.626373 175.087967,365.378540 
	C175.988846,365.485809 176.476669,365.769318 176.964508,366.052795 
z"/>
<path fill="#B6E6FA" opacity="1.000000" stroke="none" 
	d="
M165.422562,359.916870 
	C166.515869,355.129089 168.236893,350.318481 169.229568,345.361969 
	C169.592346,343.550690 168.780563,340.756683 167.461853,339.605530 
	C166.501282,338.766968 163.802917,339.766144 161.934464,340.189545 
	C161.087296,340.381561 160.374008,341.164246 159.598618,341.679901 
	C153.902206,333.037109 152.068787,332.397095 145.312729,336.734344 
	C146.582886,331.141815 150.849655,329.389465 155.037827,333.113495 
	C158.378922,336.084320 161.515717,337.797485 166.354507,337.183563 
	C171.735046,336.500946 173.969894,339.962067 172.044617,345.129395 
	C170.185486,350.119293 167.874420,354.940765 165.422562,359.916870 
z"/>
<path fill="#B6E6FA" opacity="1.000000" stroke="none" 
	d="
M97.870186,328.906952 
	C101.095695,321.486115 104.435944,314.111786 107.476479,306.615906 
	C108.383934,304.378754 109.373734,301.435669 108.605377,299.498352 
	C108.019531,298.021240 104.716858,297.621582 102.305954,296.860474 
	C102.344337,292.281342 106.603760,294.532867 108.816681,293.142120 
	C109.548950,294.537140 110.299904,295.922913 110.997322,297.335114 
	C111.132797,297.609436 110.927841,298.104095 111.101830,298.299683 
	C117.908745,305.951630 108.671516,308.563019 106.427605,313.394165 
	C104.159653,318.277100 102.148018,323.279083 100.011932,328.614441 
	C99.999779,329.000000 99.996239,329.003662 99.664154,329.002502 
	C98.889290,329.002136 98.446518,329.002899 97.970764,328.978943 
	C97.937775,328.954193 97.870178,328.906952 97.870186,328.906952 
z"/>
<path fill="#B6E6FA" opacity="1.000000" stroke="none" 
	d="
M139.486023,320.974060 
	C139.086197,314.115356 139.575058,307.181274 138.942856,300.350952 
	C138.351395,293.960602 136.214508,293.062134 129.393478,294.943115 
	C130.877670,289.378601 135.643463,290.473236 141.029999,289.697296 
	C141.367203,299.072632 141.783890,307.857330 141.897629,316.645935 
	C141.916061,318.069702 140.589966,319.510864 139.486023,320.974060 
z"/>
<path fill="#B6E6FA" opacity="1.000000" stroke="none" 
	d="
M101.612000,297.001404 
	C97.657288,303.628143 92.134605,309.695343 91.871078,318.846741 
	C91.888710,319.435791 91.949348,319.761078 91.722824,319.936646 
	C91.306671,320.439392 91.117050,320.766571 90.702400,321.304474 
	C89.337738,322.683289 88.198097,323.851349 87.058456,325.019409 
	C84.596558,322.466217 84.837753,320.596252 87.125587,317.489960 
	C90.331276,313.137512 91.821663,307.560974 94.684311,302.900269 
	C96.158447,300.500244 99.014313,298.948853 101.612000,297.001404 
z"/>
<path fill="#B6E6FA" opacity="1.000000" stroke="none" 
	d="
M139.659210,341.029358 
	C138.209229,345.862885 136.372940,350.678650 134.302551,355.766418 
	C134.030563,354.071533 133.842148,352.092133 134.004395,350.141846 
	C134.124939,348.692810 134.700256,347.281616 135.073013,345.853577 
	C133.613846,346.204620 132.154678,346.555664 130.357895,346.954315 
	C131.478409,343.801514 132.936539,340.601105 134.641693,337.167969 
	C136.350098,338.294037 137.811493,339.652802 139.659210,341.029358 
z"/>
<path fill="#B6E6FA" opacity="1.000000" stroke="none" 
	d="
M184.663467,339.057007 
	C181.228348,345.576691 177.436203,352.145416 173.346344,358.876190 
	C173.790955,356.480164 174.035049,353.615356 175.381165,351.429108 
	C178.032913,347.122345 181.296143,343.192047 184.663467,339.057007 
z"/>
<path fill="#B6E6FA" opacity="1.000000" stroke="none" 
	d="
M133.520813,361.123291 
	C134.242004,370.084198 135.358200,371.166962 144.493103,370.846802 
	C141.362244,375.139740 134.921204,374.926941 133.218964,370.035339 
	C132.306992,367.414673 133.127319,364.191193 133.520813,361.123291 
z"/>
<path fill="#EBF8FA" opacity="1.000000" stroke="none" 
	d="
M91.949341,319.761078 
	C91.949348,319.761078 91.888710,319.435791 91.885979,319.271973 
	C93.542236,316.597198 95.201218,314.086212 97.556023,310.522064 
	C96.691643,318.265289 93.033600,323.382782 89.252823,328.779297 
	C89.001564,329.001465 88.988266,328.992920 88.988266,328.992920 
	C88.525017,328.363403 88.061783,327.733887 87.285690,327.044250 
	C86.990822,326.547485 87.008797,326.110779 87.042610,325.346741 
	C88.198097,323.851349 89.337738,322.683289 90.933060,321.131897 
	C91.575615,320.419373 91.762482,320.090240 91.949341,319.761078 
z"/>
<path fill="#B6E6FA" opacity="1.000000" stroke="none" 
	d="
M76.601265,358.069763 
	C76.003288,364.721375 75.023941,371.442780 74.029869,378.582672 
	C73.704933,378.901703 73.224800,378.895844 73.110558,378.688477 
	C71.819786,376.345306 74.314903,360.071411 76.601265,358.069763 
z"/>
<path fill="#B6E6FA" opacity="1.000000" stroke="none" 
	d="
M135.426514,334.914520 
	C136.217880,331.489319 137.339874,327.981232 138.727859,324.234558 
	C140.398178,325.427734 141.802490,326.859558 142.884491,327.962738 
	C140.166946,330.581757 137.962036,332.706696 135.426514,334.914520 
z"/>
<path fill="#B6E6FA" opacity="1.000000" stroke="none" 
	d="
M192.969635,335.689941 
	C190.919418,336.373962 188.882980,336.642944 186.473038,336.989929 
	C184.834732,333.088135 188.342438,332.627228 190.466095,331.145813 
	C191.305206,332.522156 192.144333,333.898529 192.969635,335.689941 
z"/>
<path fill="#B6E6FA" opacity="1.000000" stroke="none" 
	d="
M94.832092,336.891632 
	C95.676666,334.390289 96.521240,331.888916 97.617996,329.147278 
	C97.870178,328.906952 97.937775,328.954193 98.019379,329.259399 
	C98.415550,329.861389 98.730133,330.158234 99.044724,330.455048 
	C99.361900,329.971252 99.679077,329.487457 99.996246,329.003662 
	C99.996239,329.003662 99.999779,329.000000 100.001595,328.998169 
	C100.188896,329.002869 100.374382,329.009430 100.838806,329.033569 
	C99.763588,331.786011 98.409424,334.520905 96.693268,337.579712 
	C95.831551,337.566345 95.331818,337.228973 94.832092,336.891632 
z"/>
<path fill="#B6E6FA" opacity="1.000000" stroke="none" 
	d="
M102.119041,378.456696 
	C105.421555,377.090759 108.837059,376.080597 112.611557,374.997467 
	C110.645966,380.333252 107.837059,381.350250 102.119041,378.456696 
z"/>
<path fill="#B6E6FA" opacity="1.000000" stroke="none" 
	d="
M80.471642,346.013184 
	C79.764015,348.857666 78.695007,351.723877 77.395416,354.840698 
	C76.493156,351.534760 75.877052,347.996246 80.471642,346.013184 
z"/>
<path fill="#B6E6FA" opacity="1.000000" stroke="none" 
	d="
M168.712738,364.050964 
	C168.112411,365.775452 167.153244,367.469238 166.194092,369.163055 
	C165.625275,369.023956 165.056458,368.884888 164.487640,368.745789 
	C164.487640,367.017303 164.487640,365.288818 164.721039,363.270935 
	C166.087585,363.327759 167.220749,363.674011 168.712738,364.050964 
z"/>
<path fill="#B6E6FA" opacity="1.000000" stroke="none" 
	d="
M94.007217,372.990906 
	C95.865646,374.485352 97.724068,375.979828 99.801773,377.717194 
	C95.840370,378.932068 92.873802,377.020508 91.991119,372.403076 
	C91.984146,372.015869 92.006248,371.995941 92.269379,372.104187 
	C93.024086,372.471954 93.515648,372.731445 94.007217,372.990906 
z"/>
<path fill="#B6E6FA" opacity="1.000000" stroke="none" 
	d="
M126.295258,357.952576 
	C126.772179,355.790741 127.605652,353.580994 128.687103,351.125000 
	C129.838379,353.761627 130.755310,356.648926 126.295258,357.952576 
z"/>
<path fill="#B6E6FA" opacity="1.000000" stroke="none" 
	d="
M83.549896,335.088593 
	C83.112396,337.521423 82.349068,340.039032 81.329407,342.798828 
	C78.552200,339.533234 81.817062,337.607269 83.549896,335.088593 
z"/>
<path fill="#B6E6FA" opacity="1.000000" stroke="none" 
	d="
M114.305595,373.972290 
	C115.440285,372.089081 116.945938,370.207428 118.743973,368.171875 
	C119.900024,371.699341 117.989281,373.349731 114.305595,373.972290 
z"/>
<path fill="#B6E6FA" opacity="1.000000" stroke="none" 
	d="
M85.696899,327.081360 
	C85.543877,328.888947 85.042572,330.762054 84.313377,332.842468 
	C82.126656,330.572876 83.123100,328.728424 85.696899,327.081360 
z"/>
<path fill="#E8F8FE" opacity="1.000000" stroke="none" 
	d="
M178.073761,370.348511 
	C179.784225,370.352936 181.575470,370.698364 183.770691,371.084412 
	C181.909927,374.546936 180.023880,372.733551 178.073761,370.348511 
z"/>
<path fill="#B6E6FA" opacity="1.000000" stroke="none" 
	d="
M172.696091,359.081604 
	C171.922775,360.615723 170.792343,362.182892 169.368286,363.897278 
	C170.162781,362.401184 171.250885,360.757904 172.696091,359.081604 
z"/>
<path fill="#B6E6FA" opacity="1.000000" stroke="none" 
	d="
M143.637421,337.014191 
	C142.879425,338.254944 141.746338,339.503326 140.328735,340.892517 
	C141.116913,339.696167 142.189606,338.358978 143.637421,337.014191 
z"/>
<path fill="#E8F8FE" opacity="1.000000" stroke="none" 
	d="
M199.529083,357.944031 
	C200.094528,358.133514 200.353180,358.450195 200.868591,358.938354 
	C200.339401,359.639709 199.553436,360.169617 198.767487,360.699524 
	C198.919083,359.823456 199.070694,358.947357 199.529083,357.944031 
z"/>
<path fill="#B6E6FA" opacity="1.000000" stroke="none" 
	d="
M75.013123,382.348236 
	C76.121262,382.617584 77.243576,383.249023 78.686592,383.933533 
	C77.089165,385.405609 75.557938,385.618103 75.013123,382.348236 
z"/>
<path fill="#E8F8FE" opacity="1.000000" stroke="none" 
	d="
M187.657166,366.196777 
	C187.061874,366.400970 186.090012,366.535797 185.052521,366.362549 
	C185.751465,366.078827 186.516022,366.103149 187.657166,366.196777 
z"/>
<path fill="#E8F8FE" opacity="1.000000" stroke="none" 
	d="
M204.302780,356.907013 
	C204.459824,356.306122 204.945847,355.734680 205.431885,355.163208 
	C205.671234,355.622559 205.910583,356.081848 206.046875,356.803406 
	C205.506485,357.022583 205.069107,356.979523 204.302780,356.907013 
z"/>
<path fill="#B6E6FA" opacity="1.000000" stroke="none" 
	d="
M125.721771,298.073059 
	C125.581322,298.661987 125.116959,299.301544 124.349670,300.028839 
	C124.497124,299.452301 124.947487,298.787964 125.721771,298.073059 
z"/>
<path fill="#B6E6FA" opacity="1.000000" stroke="none" 
	d="
M121.342690,364.937378 
	C121.465660,364.351440 121.904160,363.702698 122.644104,362.961914 
	C122.516441,363.538116 122.087326,364.206329 121.342690,364.937378 
z"/>
<path fill="#B6E6FA" opacity="1.000000" stroke="none" 
	d="
M128.692505,295.059082 
	C128.547699,295.635468 128.089233,296.267761 127.322266,296.964966 
	C127.468796,296.391571 127.923828,295.753235 128.692505,295.059082 
z"/>
<path fill="#B6E6FA" opacity="1.000000" stroke="none" 
	d="
M124.275223,360.925262 
	C124.397331,360.320282 124.849686,359.660400 125.603523,358.895538 
	C125.471825,359.483826 125.038643,360.177094 124.275223,360.925262 
z"/>
<path fill="#E8F8FE" opacity="1.000000" stroke="none" 
	d="
M186.405884,356.063385 
	C186.500549,355.488922 186.886917,354.807220 187.579193,354.052002 
	C187.489273,354.637695 187.093445,355.296906 186.405884,356.063385 
z"/>
<path fill="#B6E6FA" opacity="1.000000" stroke="none" 
	d="
M145.187012,369.884644 
	C145.081757,369.684174 145.272858,369.417389 145.766144,369.091461 
	C145.861862,369.288147 145.666855,369.550140 145.187012,369.884644 
z"/>
<path fill="#FFED59" opacity="1.000000" stroke="none" 
	d="
M104.204102,178.564148 
	C102.720421,177.723221 101.568268,177.089157 100.153717,175.851822 
	C98.289604,165.830154 95.479904,156.417953 95.431564,146.991577 
	C95.384789,137.869110 98.783142,128.938141 103.997910,121.069862 
	C115.719421,103.383949 132.432526,93.785858 153.379318,93.256325 
	C170.071930,92.834328 184.588028,99.318359 196.379684,111.693306 
	C204.167816,119.866684 208.975876,129.338699 211.587387,140.172836 
	C214.004227,150.199371 212.492996,159.759232 209.467560,169.465805 
	C203.259415,189.383530 190.135773,201.901413 170.457733,208.155014 
	C161.368713,211.043488 152.260666,211.645355 142.661377,209.707642 
	C132.614105,207.851761 124.485260,202.887772 116.834320,196.948059 
	C116.797516,196.295288 116.760704,195.642502 116.806267,194.369919 
	C116.474884,193.190933 116.061127,192.631760 115.647377,192.072586 
	C115.372513,191.085693 115.097649,190.098785 114.852493,188.415482 
	C114.424973,187.156631 113.967735,186.594208 113.510490,186.031769 
	C110.518860,183.611526 107.527237,181.191269 104.204102,178.564148 
z"/>
<path fill="#FCD736" opacity="1.000000" stroke="none" 
	d="
M142.937454,209.952774 
	C152.260666,211.645355 161.368713,211.043488 170.457733,208.155014 
	C190.135773,201.901413 203.259415,189.383530 209.467560,169.465805 
	C212.492996,159.759232 214.004227,150.199371 211.587387,140.172836 
	C208.975876,129.338699 204.167816,119.866684 196.379684,111.693306 
	C184.588028,99.318359 170.071930,92.834328 153.379318,93.256325 
	C132.432526,93.785858 115.719421,103.383949 103.997910,121.069862 
	C98.783142,128.938141 95.384789,137.869110 95.431564,146.991577 
	C95.479904,156.417953 98.289604,165.830154 99.936523,175.618744 
	C91.820465,174.706512 86.117516,180.038071 79.569237,184.297882 
	C68.093239,158.869156 70.142685,134.578613 83.337196,111.497368 
	C89.402382,100.887505 96.622993,90.218643 110.265137,85.189888 
	C109.889198,79.783058 116.336647,79.979698 120.125053,78.211754 
	C131.723495,72.799110 144.025726,69.165985 157.053436,70.126068 
	C162.371994,70.518021 167.558105,72.486221 172.877991,73.127144 
	C183.754715,74.437538 192.292313,81.176064 202.361404,85.220474 
	C207.448212,90.484673 212.250076,95.600960 216.929153,100.827164 
	C226.108276,111.079575 231.604874,123.155754 233.947540,136.626297 
	C234.966461,142.485138 236.296692,148.546341 235.773987,154.361801 
	C234.777145,165.452789 232.813110,176.471191 227.674545,186.649719 
	C221.181885,199.510406 212.670792,210.669800 200.624786,218.737152 
	C196.139786,221.740799 191.126678,223.983673 186.238998,226.333496 
	C185.323746,226.773544 183.400833,226.524658 182.719467,225.830978 
	C173.959930,216.913162 166.466751,216.142014 157.010666,223.452576 
	C156.273941,224.022141 155.794601,224.924637 155.221497,226.043182 
	C155.173477,226.685608 155.024811,226.907074 154.222168,227.087708 
	C151.511398,224.590393 149.437836,222.031052 147.227310,219.596039 
	C145.811279,218.036224 144.193161,216.659866 142.665634,215.201263 
	C142.665634,215.201263 142.303802,215.051941 142.178864,214.556488 
	C142.348434,212.691620 142.642944,211.322189 142.937454,209.952774 
z"/>
<path fill="#EEDA5A" opacity="1.000000" stroke="none" 
	d="
M142.661377,209.707642 
	C142.642944,211.322189 142.348434,212.691620 142.047729,214.411209 
	C140.100586,213.533005 138.232513,212.165970 136.205795,211.100769 
	C128.349152,206.971481 121.905830,209.744995 115.418312,216.774872 
	C115.796570,209.490616 116.103989,203.570633 116.622864,197.299347 
	C124.485260,202.887772 132.614105,207.851761 142.661377,209.707642 
z"/>
<path fill="#EEDA5A" opacity="1.000000" stroke="none" 
	d="
M142.768616,215.539795 
	C144.193161,216.659866 145.811279,218.036224 147.227310,219.596039 
	C149.437836,222.031052 151.511398,224.590393 154.038925,227.176910 
	C152.948532,229.139297 151.462219,231.021820 150.131989,232.706635 
	C147.614822,226.872269 145.243210,221.375305 142.768616,215.539795 
z"/>
<path fill="#EEDA5A" opacity="1.000000" stroke="none" 
	d="
M115.554909,192.345062 
	C116.061127,192.631760 116.474884,193.190933 116.879349,194.049744 
	C116.400848,193.772110 115.931641,193.194824 115.554909,192.345062 
z"/>
<path fill="#EEDA5A" opacity="1.000000" stroke="none" 
	d="
M113.457855,186.322662 
	C113.967735,186.594208 114.424973,187.156631 114.876022,188.026825 
	C114.381622,187.760925 113.893425,187.187241 113.457855,186.322662 
z"/>
<path fill="#D2EDF6" opacity="1.000000" stroke="none" 
	d="
M94.506447,337.011719 
	C95.331818,337.228973 95.831551,337.566345 96.637032,337.927734 
	C95.082893,341.739960 93.223007,345.528168 91.363121,349.316376 
	C90.843506,349.117798 90.323883,348.919220 89.804268,348.720642 
	C91.263115,344.857666 92.721962,340.994720 94.506447,337.011719 
z"/>
<path fill="#DEF7FD" opacity="1.000000" stroke="none" 
	d="
M94.195656,372.761963 
	C93.515648,372.731445 93.024086,372.471954 92.280685,372.095398 
	C91.421021,369.558716 90.813187,367.139069 90.205360,364.719452 
	C90.685303,364.497925 91.165245,364.276398 91.645187,364.054871 
	C93.012627,366.478485 94.380058,368.902130 95.894547,371.636780 
	C95.489105,372.142883 94.936607,372.337952 94.195656,372.761963 
z"/>
<path fill="#EBF8FA" opacity="1.000000" stroke="none" 
	d="
M89.007889,329.007996 
	C88.790054,331.544189 88.565895,334.073853 88.341728,336.603485 
	C87.693375,336.482361 87.045013,336.361237 86.396652,336.240112 
	C87.094421,333.988586 87.792198,331.737061 88.739120,329.239227 
	C88.988266,328.992920 89.001564,329.001465 89.007889,329.007996 
z"/>
<path fill="#BDE6F7" opacity="1.000000" stroke="none" 
	d="
M145.717407,361.846619 
	C144.039154,364.086792 142.656891,364.849884 142.087494,361.628967 
	C141.213196,356.683411 148.786880,340.993164 153.147629,338.467072 
	C156.170685,342.354584 156.432602,347.156708 153.814240,350.757965 
	C151.193848,354.362030 148.570312,357.963806 145.717407,361.846619 
z"/>
<path fill="#E8F8FE" opacity="1.000000" stroke="none" 
	d="
M176.979980,365.717224 
	C176.476669,365.769318 175.988846,365.485809 175.244873,365.082336 
	C175.331818,364.222900 175.674896,363.483490 176.541092,361.616638 
	C176.793182,363.705414 176.894318,364.543518 176.979980,365.717224 
z"/>
<path fill="#BCE6F8" opacity="1.000000" stroke="none" 
	d="
M194.644333,390.576813 
	C191.706116,396.756958 189.104156,402.686401 185.980530,408.326935 
	C185.171967,409.786987 182.728775,410.341797 181.036438,411.312408 
	C180.402740,409.382202 178.849792,407.179016 179.325226,405.578217 
	C180.339371,402.163574 182.023849,398.784637 184.122589,395.890717 
	C188.049133,390.476471 192.465790,385.417664 196.678543,380.210968 
	C197.104034,380.484192 197.529526,380.757385 197.955017,381.030609 
	C196.898743,384.093231 195.842484,387.155853 194.644333,390.576813 
z"/>
<path fill="#B3E5FC" opacity="1.000000" stroke="none" 
	d="
M99.664154,329.002502 
	C99.679077,329.487457 99.361900,329.971252 99.044724,330.455048 
	C98.730133,330.158234 98.415550,329.861389 98.052361,329.284119 
	C98.446518,329.002899 98.889290,329.002136 99.664154,329.002502 
z"/>
<path fill="#F6FDFD" opacity="1.000000" stroke="none" 
	d="
M91.722816,319.936646 
	C91.762482,320.090240 91.575615,320.419373 91.158089,320.921143 
	C91.117050,320.766571 91.306671,320.439392 91.722816,319.936646 
z"/>
</svg>