<svg version="1.1" id="Layer_1" xmlns="http://www.w3.org/2000/svg" xmlns:xlink="http://www.w3.org/1999/xlink" x="0px" y="0px"
	 width="100%" viewBox="0 0 300 479" enable-background="new 0 0 300 479" xml:space="preserve">
<path fill="#5D6BC0" opacity="1.000000" stroke="none" 
	d="
M1.000000,454.000000 
	C1.000000,347.311890 1.000000,240.623795 1.468467,133.452820 
	C8.585849,132.962463 15.235183,132.903625 21.883596,132.957870 
	C37.001045,133.081207 52.118046,133.260101 67.058823,133.826782 
	C66.260025,137.480698 65.348648,140.699432 65.067123,143.972321 
	C64.046448,155.838074 65.733063,167.456345 69.417664,178.703629 
	C72.575737,188.343689 76.605286,197.615662 85.149811,204.326508 
	C85.785019,205.428574 86.394653,206.212921 87.135284,207.304321 
	C88.992928,209.609940 90.611946,211.714981 92.464996,213.588562 
	C100.215858,221.425354 109.618484,226.404678 119.967026,230.062546 
	C135.564804,235.575821 151.290314,237.073914 167.347305,232.789566 
	C175.796371,230.535187 184.240601,228.101334 191.510483,222.086685 
	C218.966278,221.945312 245.968262,222.088913 272.928253,218.979477 
	C270.643921,217.866669 268.314148,217.280792 265.964508,217.185577 
	C254.318909,216.713730 242.669922,216.297897 231.018509,216.005814 
	C221.031647,215.755463 211.039917,215.698990 201.250702,215.320770 
	C203.966644,212.352524 206.482239,209.620270 209.404938,206.806396 
	C212.625290,206.563553 215.437744,206.281311 218.251923,206.263031 
	C228.046158,206.199371 237.841660,206.279907 247.634827,206.158188 
	C248.964066,206.141678 251.343811,205.382217 251.396301,204.800568 
	C251.524628,203.379120 251.003769,201.096130 249.979721,200.520889 
	C246.614822,198.630600 242.932587,196.175079 239.330215,196.105255 
	C234.063248,196.003113 229.694473,196.273987 228.120773,189.902603 
	C227.773682,188.497406 225.982239,187.448959 224.894379,185.817566 
	C225.089798,184.419556 225.077209,183.374207 225.429123,182.470856 
	C230.462616,169.550232 232.334930,156.265610 230.112091,142.505051 
	C229.114304,136.328171 228.040756,130.163528 227.470093,123.987022 
	C252.292419,123.987144 276.646210,123.993568 301.000000,124.000000 
	C301.000000,233.688095 301.000000,343.376190 300.531830,453.557068 
	C200.375778,454.033234 100.687889,454.016632 1.000000,454.000000 
M77.842575,329.451050 
	C77.620346,329.768433 77.398117,330.085785 77.178246,330.131989 
	C77.178246,330.131989 77.449387,330.135010 76.980835,330.551819 
	C76.693695,331.095428 76.406555,331.639008 76.109497,332.116516 
	C76.109497,332.116516 76.175613,332.126251 75.462692,331.980713 
	C74.588326,331.584229 73.713951,331.187775 73.071609,330.237579 
	C74.521400,325.418701 76.522209,320.681763 77.254417,315.756226 
	C77.891289,311.472015 77.812386,306.767212 76.625252,302.660034 
	C76.041298,300.639679 72.218483,298.237183 69.885849,298.262543 
	C58.003834,298.391632 48.976025,313.506165 50.188541,321.412354 
	C50.448849,323.109680 52.116383,324.591187 53.212360,326.291077 
	C56.060097,320.385864 58.059769,315.466370 60.749115,310.958313 
	C62.310841,308.340424 64.855988,306.238861 67.218216,304.206757 
	C68.050583,303.490723 69.655128,303.672363 70.907112,303.444153 
	C71.147659,304.825867 71.804756,306.292847 71.542976,307.571747 
	C70.979065,310.326630 70.115990,313.053986 69.071190,315.671173 
	C62.786068,331.415283 56.317257,347.086975 50.158524,362.879852 
	C48.989269,365.878143 48.413788,369.339508 48.588936,372.531006 
	C48.674061,374.082092 50.907185,376.132446 52.596886,376.717133 
	C53.437325,377.007935 55.644794,374.734222 56.525787,373.211090 
	C58.009628,370.645691 58.636227,367.582336 60.133118,365.027039 
	C71.260635,346.031586 84.042465,328.234283 99.614761,311.937500 
	C99.898880,311.663422 100.182999,311.389374 101.129257,311.100525 
	C101.700493,311.388947 102.271729,311.677338 102.678665,312.744110 
	C101.143181,316.169006 99.607704,319.593872 97.813759,323.445068 
	C97.813759,323.445068 97.710960,323.932922 97.237968,324.358582 
	C96.532501,325.910339 95.827034,327.462067 94.775726,329.507172 
	C94.483192,330.441376 94.190659,331.375580 93.341637,332.719360 
	C93.206009,333.150330 93.070381,333.581329 92.804428,334.195526 
	C92.804428,334.195526 92.925819,334.384796 92.437592,334.805878 
	C92.312775,335.207916 92.187950,335.609955 91.671356,336.572327 
	C87.214851,346.600250 82.288635,356.455994 78.520668,366.736267 
	C76.891365,371.181549 76.641983,376.691620 77.517212,381.391876 
	C80.238747,396.007416 89.941223,398.931732 101.562881,388.710693 
	C103.658943,387.129852 103.918442,385.533813 100.946350,385.246277 
	C98.719681,385.030884 96.391518,386.105927 94.118042,386.065979 
	C91.783157,386.024994 88.871750,386.003662 87.343323,384.674042 
	C86.365471,383.823364 87.470535,380.617645 87.581917,378.464661 
	C87.694855,376.281769 87.734123,374.095093 87.906693,371.280060 
	C88.271416,370.526825 88.636139,369.773560 89.716385,368.808380 
	C90.418678,366.707977 91.120964,364.607574 91.814568,362.225525 
	C91.814568,362.225525 91.992142,362.006744 92.595764,361.697205 
	C96.019768,356.506012 100.680885,351.846130 99.884674,344.933228 
	C99.884674,344.933228 99.775581,344.975403 100.191147,344.445282 
	C100.439117,343.599426 100.687096,342.753540 100.969742,341.962646 
	C100.969742,341.962646 100.908440,341.984161 101.183128,341.565826 
	C101.340019,341.269440 101.496902,340.973053 101.346092,340.601501 
	C101.346092,340.601501 101.420227,340.293549 102.179184,340.339081 
	C107.362099,339.184662 105.563698,335.055847 105.881691,331.909912 
	C105.881691,331.909912 105.784042,331.829163 106.344231,331.779510 
	C106.557541,331.044708 106.770844,330.309875 107.045692,329.222473 
	C107.045692,329.222473 107.291115,328.961914 107.984566,328.628967 
	C109.203865,326.937836 110.577164,325.333954 111.598694,323.530762 
	C112.598076,321.766663 113.238861,319.799377 114.661476,318.447601 
	C115.101128,318.767487 115.540787,319.087402 115.477654,319.657013 
	C115.394463,319.489380 115.311279,319.321777 115.243919,319.493622 
	C115.225838,319.617798 115.207748,319.741943 115.189651,319.866119 
	C115.236778,319.638428 115.283913,319.410767 115.909698,319.772430 
	C115.976486,320.039520 116.043282,320.306610 116.076279,321.461884 
	C116.082413,322.348297 116.088547,323.234741 116.044296,324.037506 
	C116.044296,324.037506 116.129211,323.989349 115.743752,324.579254 
	C115.528908,325.248871 115.314072,325.918488 115.187737,326.790405 
	C115.187737,326.790405 115.048309,326.961639 114.700066,327.428894 
	C114.476761,327.962097 114.253456,328.495331 114.000000,329.000000 
	C114.000000,329.000000 114.030533,329.028595 113.524605,329.294800 
	C113.189812,329.753052 112.855026,330.211304 112.608017,330.633575 
	C112.608017,330.633575 112.630516,330.725739 112.005020,330.745331 
	C110.383163,334.175385 108.761314,337.605438 106.756401,341.616241 
	C105.391579,346.484070 103.845894,351.313782 102.804985,356.249908 
	C102.579880,357.317413 104.170502,358.767822 105.115524,360.286041 
	C105.115524,360.286041 105.139206,360.595032 105.408356,361.247742 
	C105.881828,361.763397 106.355293,362.279083 107.293755,363.051544 
	C107.847939,363.739410 108.402122,364.427246 109.203110,365.758331 
	C111.149055,366.744995 113.585587,369.007507 114.950348,368.482727 
	C119.310867,366.806030 121.095963,368.600189 123.095314,372.033600 
	C124.054848,373.681335 126.509735,374.457855 128.286575,375.630219 
	C129.621704,376.511108 130.955551,377.393951 132.115128,378.142578 
	C132.115128,378.142578 132.308868,378.246490 131.722641,378.434967 
	C131.229309,379.041504 130.735962,379.648071 129.998825,380.009949 
	C129.998825,380.009949 130.245117,380.250305 129.524231,380.355713 
	C128.523483,381.721680 127.522736,383.087646 126.501999,384.481323 
	C126.501999,384.481323 126.478065,384.505707 125.735832,384.533966 
	C124.518257,386.417267 123.300682,388.300568 121.900208,390.582550 
	C121.724037,390.829956 121.491692,391.001038 120.571922,391.314728 
	C115.003151,395.726257 113.449890,404.245056 117.414139,409.803864 
	C118.163895,410.855194 119.827744,411.254669 121.015816,411.991058 
	C121.015816,411.991058 121.039360,411.930511 121.224358,412.649811 
	C124.841934,416.158051 128.623978,415.850311 131.857162,411.853333 
	C131.857162,411.853333 131.788925,411.848297 132.298569,411.617065 
	C132.603409,411.166840 132.908264,410.716583 133.393707,410.179352 
	C133.393707,410.179352 133.482254,410.359192 133.966843,410.212402 
	C134.288544,410.100403 134.562561,409.917206 134.914841,408.973480 
	C138.636871,398.925262 142.428375,388.901917 146.043350,378.815308 
	C147.312149,375.275116 147.086380,370.544556 149.401901,368.170471 
	C154.221359,363.229004 160.281433,359.497528 165.920456,356.150238 
	C165.948196,358.963196 165.713928,361.815552 166.128098,364.570404 
	C166.302246,365.728821 167.712585,367.301880 168.809250,367.539246 
	C169.759216,367.744843 171.376968,366.575012 172.145050,365.583496 
	C174.258545,362.855255 176.080902,359.901428 178.507996,356.868500 
	C178.895447,356.533386 179.282898,356.198242 180.298645,355.593201 
	C181.129578,354.830322 182.010040,354.114227 182.782303,353.295990 
	C185.277481,350.652313 186.602203,351.651184 187.250443,355.424805 
	C186.659561,357.838348 185.965042,360.232117 185.499695,362.669617 
	C184.567810,367.550873 187.197800,372.641296 191.654709,374.558746 
	C196.193008,376.511139 198.756973,373.583649 201.251205,370.517578 
	C202.234680,369.308655 203.343079,368.201324 205.124130,366.247345 
	C205.587036,368.350037 206.027618,369.362823 205.988205,370.356598 
	C205.866913,373.415497 205.251740,376.483002 205.407394,379.517456 
	C205.600235,383.276947 207.514908,386.761047 211.406372,386.940460 
	C213.855911,387.053345 217.092712,385.346466 218.802063,383.416107 
	C224.066345,377.471100 228.765854,371.026062 234.350479,364.657013 
	C236.193100,361.716003 238.035736,358.774994 239.918152,355.936035 
	C239.918152,355.936035 239.815994,355.975525 240.231735,355.615692 
	C240.521378,355.156097 240.811020,354.696533 241.225250,353.749847 
	C241.596634,353.434357 241.968018,353.118866 242.980499,352.514801 
	C244.584702,350.860626 247.212479,349.270630 243.141556,347.311646 
	C243.141556,347.311646 243.037918,347.173553 242.672928,346.932678 
	C242.168091,347.100830 241.663254,347.268982 241.184555,347.280914 
	C241.184555,347.280914 241.340607,347.308014 240.627869,347.398468 
	C239.103241,349.628296 237.578613,351.858124 236.028015,354.026917 
	C236.028015,354.026917 236.092377,354.010620 235.704971,354.363495 
	C235.493378,354.640686 235.281784,354.917908 235.136856,355.047668 
	C235.136856,355.047668 235.284180,355.114563 234.739548,355.456512 
	C234.168427,356.324890 233.597321,357.193237 233.008087,358.005737 
	C233.008087,358.005737 233.063751,358.024475 232.431061,358.254425 
	C231.822601,359.330322 231.214142,360.406250 230.172318,361.158478 
	C230.311874,361.272736 230.451416,361.386963 229.899017,361.647369 
	C224.826447,364.393921 221.817490,368.760223 220.073959,374.075165 
	C220.073959,374.075165 220.139526,374.076691 219.611435,374.332733 
	C219.252441,374.784576 218.893463,375.236420 218.542664,375.734131 
	C218.542664,375.734131 218.502975,375.758484 217.875793,375.257996 
	C217.394073,374.093201 216.327072,372.813263 216.529785,371.783142 
	C217.521164,366.745148 218.744675,361.744904 220.089905,356.786621 
	C221.555878,351.383392 223.245758,346.040894 224.876450,340.299713 
	C224.876450,340.299713 225.083923,339.988281 225.708420,339.721863 
	C228.063477,336.490814 231.171036,333.544220 229.877701,328.255920 
	C229.911407,327.823029 229.945114,327.390167 230.213043,326.918121 
	C230.213043,326.918121 230.433777,326.830536 231.195923,326.526459 
	C234.552338,325.994720 237.970139,325.701355 241.246140,324.857452 
	C243.972046,324.155273 246.531342,322.806335 249.164444,321.743866 
	C248.750809,321.232635 248.337173,320.721405 247.308365,319.892944 
	C246.877502,319.729218 246.446640,319.565491 245.568359,318.976593 
	C243.506378,318.650482 241.391251,318.507874 239.401703,317.931671 
	C238.143143,317.567139 237.071915,316.555908 236.050110,315.235229 
	C236.376190,314.496460 236.702255,313.757660 237.470825,312.502014 
	C240.610443,307.510498 243.750076,302.518951 246.870224,297.558380 
	C241.896057,293.979248 237.530457,294.352203 234.507324,298.793976 
	C231.430222,303.315063 227.892044,307.844666 226.218002,312.918945 
	C223.989655,319.673370 219.788483,321.341431 213.551559,320.965485 
	C210.905716,320.806030 208.213425,320.989746 205.573837,321.292633 
	C203.553650,321.524475 201.583069,322.188538 199.590424,322.660370 
	C199.650482,323.149292 199.710556,323.638214 199.770615,324.127136 
	C206.543549,324.127136 213.316467,324.127136 220.517807,324.127136 
	C215.644241,340.690674 210.550797,356.285400 194.750748,366.417206 
	C194.750748,364.493256 194.475586,363.289764 194.795685,362.273834 
	C196.780487,355.974548 198.841476,349.697510 200.999146,343.455231 
	C201.973785,340.635529 203.724701,337.990631 204.175461,335.117706 
	C204.455414,333.333374 203.372223,330.902618 202.101807,329.471191 
	C201.349777,328.623871 198.638275,328.507233 197.516388,329.203583 
	C195.082016,330.714447 193.102524,332.958191 190.410126,335.308990 
	C187.056274,339.366516 183.800461,343.511932 180.289093,347.428223 
	C179.229691,348.609802 177.461044,349.155487 176.010757,349.243744 
	C178.168976,340.082977 183.779984,333.299530 189.968842,326.382294 
	C196.960800,318.567413 203.167221,309.733551 208.069870,300.471832 
	C211.596558,293.809509 213.301895,285.822632 214.195129,278.235352 
	C214.977509,271.589539 209.774719,269.013397 204.132217,272.930603 
	C200.554611,275.414337 197.507385,278.977661 194.962921,282.579956 
	C183.267929,299.136902 175.029282,317.354462 169.215012,337.349792 
	C167.107468,341.603424 164.999908,345.857056 162.239563,349.940796 
	C160.369431,345.272583 157.889816,340.740570 156.807114,335.896362 
	C155.800873,331.394257 153.842300,329.015564 149.335480,329.100891 
	C146.556091,329.153473 143.610870,329.208252 141.078735,330.161499 
	C139.637802,330.703979 138.878494,333.056915 137.712814,334.763458 
	C137.712814,334.763458 137.516891,334.758270 136.810394,334.714417 
	C135.937149,335.888733 135.063889,337.063049 134.124985,338.114136 
	C134.124985,338.114136 134.248428,338.048859 133.807724,338.409698 
	C133.556290,338.693909 133.304871,338.978119 133.113815,339.110870 
	C133.113815,339.110870 133.265152,339.171600 132.681015,339.397705 
	C132.223618,340.054352 131.766220,340.710999 131.204636,341.208710 
	C131.204636,341.208710 131.363968,341.105133 130.927383,341.507629 
	C130.674927,341.813080 130.422485,342.118530 130.194672,342.146057 
	C130.194672,342.146057 130.472473,342.171417 129.989075,342.538574 
	C129.665787,343.035950 129.342484,343.533295 128.992706,344.001740 
	C128.992706,344.001740 129.031006,344.008759 128.663254,344.367920 
	C128.458969,344.643585 128.254669,344.919220 128.082962,345.102692 
	C128.082962,345.102692 128.175018,345.135620 127.433113,345.175110 
	C124.690903,346.596039 121.948685,348.016968 120.003181,349.025085 
	C119.447464,352.518219 119.038872,355.086487 118.611366,357.763123 
	C118.611366,357.763123 118.502563,357.747070 117.846024,357.584900 
	C116.491898,357.584900 115.137764,357.584900 114.171211,357.584900 
	C112.912354,350.270111 124.051582,345.726318 117.923309,338.493134 
	C118.986534,335.713318 119.811974,333.555176 120.689888,330.911896 
	C120.770683,330.596741 120.840279,330.279114 121.483315,329.588623 
	C121.685181,328.529388 121.887039,327.470184 122.172104,326.143250 
	C122.172104,326.143250 122.418686,326.009979 122.990242,326.532654 
	C123.913597,328.121735 124.836945,329.710815 125.760300,331.299896 
	C126.272598,330.792175 126.784897,330.284454 127.297195,329.776764 
	C127.048172,326.503906 126.956619,323.205444 126.431099,319.977631 
	C126.310989,319.239899 124.693947,318.745911 123.871910,318.133301 
	C123.871910,318.133301 123.869316,318.239502 123.628891,317.571991 
	C120.423973,316.741547 117.219063,315.911133 113.700134,314.533905 
	C112.826668,313.675934 111.953201,312.817963 110.942352,311.535980 
	C110.942352,311.535980 110.954491,311.090393 110.985382,310.283020 
	C109.964539,303.817291 105.445465,302.126312 100.105789,306.130707 
	C100.105789,306.130707 100.178223,306.154510 99.475220,306.173492 
	C98.311043,307.107544 97.146866,308.041565 95.998268,309.002441 
	C95.998268,309.002441 95.973755,308.980865 95.248863,309.034698 
	C94.260376,310.128174 93.271889,311.221649 92.245911,312.239868 
	C92.245911,312.239868 92.326332,312.264435 91.735695,312.463043 
	C91.274094,313.107971 90.812485,313.752899 90.256805,314.234680 
	C90.256805,314.234680 90.420425,314.141388 89.987709,314.538116 
	C89.740417,314.841400 89.493126,315.144684 89.249001,315.217651 
	C89.249001,315.217651 89.479347,315.221741 89.068069,315.614807 
	C88.836777,315.915863 88.605484,316.216919 88.528473,316.502441 
	C88.528473,316.502441 88.543808,316.656769 87.889137,316.714020 
	C87.308556,317.538147 86.727982,318.362305 86.136368,319.120148 
	C86.136368,319.120148 86.203255,319.126617 85.628555,319.367096 
	C85.205437,320.041229 84.782310,320.715363 84.311951,321.232239 
	C84.311951,321.232239 84.469498,321.186096 83.983643,321.533722 
	C83.656990,322.017822 83.330338,322.501923 83.019157,323.020599 
	C83.019157,323.020599 82.981293,323.019287 82.297508,323.153503 
	C81.222328,324.799683 80.147156,326.445831 79.039619,328.036743 
	C79.039619,328.036743 79.102150,328.022980 78.705208,328.386475 
	C78.491364,328.674866 78.277512,328.963226 78.055687,329.051117 
	C78.055687,329.051117 78.256187,329.043365 77.842575,329.451050 
M60.071751,206.530487 
	C66.278656,206.530487 72.485558,206.530487 79.213799,206.530487 
	C74.699341,201.253464 68.214851,199.369019 63.194515,201.873001 
	C61.636318,202.650177 60.723125,204.720551 60.071751,206.530487 
M82.044655,243.006989 
	C83.414978,243.813873 84.718407,244.901840 86.197014,245.253647 
	C86.631744,245.357117 88.133415,243.357056 88.102661,242.352997 
	C88.073128,241.388733 86.327705,239.544525 85.967957,239.686569 
	C84.518028,240.259155 83.312500,241.450623 82.044655,243.006989 
z"/>
<path fill="#4758B4" opacity="1.000000" stroke="none" 
	d="
M301.000000,123.531342 
	C276.646210,123.993568 252.292419,123.987144 227.164932,123.948570 
	C225.982666,123.881660 225.574112,123.846886 225.131592,123.420486 
	C224.805298,121.402405 224.858994,119.609650 224.169174,118.174187 
	C211.950989,92.748283 192.247589,75.817703 164.610229,70.362595 
	C135.496796,64.616135 109.546326,72.555466 88.254295,93.796448 
	C86.346306,95.699875 85.310120,98.477196 83.519470,100.877655 
	C82.476677,101.005234 81.783455,101.103813 80.618286,101.172028 
	C73.021271,101.417236 65.890953,102.013077 58.772346,101.896049 
	C47.043438,101.703232 35.324142,100.775085 23.596863,100.688370 
	C16.068220,100.632690 8.532531,101.529915 1.000000,102.000000 
	C1.000000,84.645775 1.000000,67.291542 1.468649,49.466255 
	C11.746296,49.310802 21.553688,49.693073 31.364594,49.929527 
	C60.811512,50.639233 90.259178,51.320564 119.707779,51.956436 
	C137.678192,52.344456 155.650406,52.656536 173.622635,52.951839 
	C195.924698,53.318295 218.226639,53.746239 240.530441,53.934906 
	C260.685699,54.105400 280.843384,53.989567 301.000000,54.000000 
	C301.000000,61.020947 301.000000,68.041893 300.531555,75.530548 
	C272.603058,76.788597 245.096664,77.019135 217.941650,81.493187 
	C217.945145,82.355865 217.948639,83.218552 217.952148,84.081230 
	C245.506409,87.434937 273.180786,89.184494 301.000000,89.000000 
	C301.000000,100.354225 301.000000,111.708458 301.000000,123.531342 
M84.502708,68.738449 
	C82.991959,68.436470 81.475418,67.938545 79.974907,67.982864 
	C79.638184,67.992813 78.831284,70.157913 79.180641,70.869347 
	C79.645134,71.815208 81.664619,73.071899 81.912460,72.866096 
	C83.064346,71.909569 83.835213,70.494202 84.502708,68.738449 
z"/>
<path fill="#4758B4" opacity="1.000000" stroke="none" 
	d="
M1.000000,36.000000 
	C1.000000,24.347181 1.000000,12.694361 1.000004,1.046219 
	C101.000015,1.050896 201.000015,1.050896 301.000000,1.050896 
	C301.000000,12.088757 301.000000,23.075720 300.593445,34.626671 
	C297.044556,35.450008 293.902405,35.933468 290.759918,35.935650 
	C226.988388,35.979881 163.216797,35.965641 99.445213,35.970455 
	C66.630142,35.972931 33.815071,35.989693 1.000000,36.000000 
z"/>
<path fill="#5C6AC1" opacity="1.000000" stroke="none" 
	d="
M1.000000,36.463181 
	C33.815071,35.989693 66.630142,35.972931 99.445213,35.970455 
	C163.216797,35.965641 226.988388,35.979881 290.759918,35.935650 
	C293.902405,35.933468 297.044556,35.450008 300.593445,35.095329 
	C301.000000,41.021152 301.000000,47.042305 301.000000,53.531731 
	C280.843384,53.989567 260.685699,54.105400 240.530441,53.934906 
	C218.226639,53.746239 195.924698,53.318295 173.622635,52.951839 
	C155.650406,52.656536 137.678192,52.344456 119.707779,51.956436 
	C90.259178,51.320564 60.811512,50.639233 31.364594,49.929527 
	C21.553688,49.693073 11.746296,49.310802 1.468649,48.997597 
	C1.000000,44.975456 1.000000,40.950912 1.000000,36.463181 
z"/>
<path fill="#32419D" opacity="1.000000" stroke="none" 
	d="
M1.000000,454.444153 
	C100.687889,454.016632 200.375778,454.033234 300.531830,454.024902 
	C301.000000,456.370575 301.000000,458.741119 300.531342,461.554810 
	C200.375122,461.998627 100.687561,461.999298 1.000000,462.000000 
	C1.000000,459.629425 1.000000,457.258881 1.000000,454.444153 
z"/>
<path fill="#3A49A9" opacity="1.000000" stroke="none" 
	d="
M1.000000,462.428467 
	C100.687561,461.999298 200.375122,461.998627 300.531342,461.998962 
	C301.000000,466.356903 301.000000,470.713806 300.608002,475.516846 
	C296.485565,475.319855 292.755157,474.676697 288.608704,473.957825 
	C265.798370,471.899841 243.404068,469.917572 220.761261,467.685730 
	C216.654144,467.299316 212.795532,467.162476 208.475266,467.032318 
	C200.313644,467.066071 192.613708,467.093170 184.450897,467.100708 
	C174.321167,466.996063 164.654282,466.911011 154.837891,466.503906 
	C150.675339,462.921021 147.128204,463.149384 143.987610,466.949799 
	C144.017105,467.026886 144.066864,467.184296 143.605804,467.150269 
	C123.057503,468.599060 102.970268,470.081879 82.583733,471.565979 
	C81.886482,471.539001 81.488533,471.510803 80.962372,471.183899 
	C78.800789,468.263367 77.879745,469.995117 76.628822,471.889893 
	C63.169880,471.041321 50.076458,470.169128 36.536110,469.230377 
	C24.392790,468.775879 12.696395,468.387939 1.000000,468.000000 
	C1.000000,466.285645 1.000000,464.571289 1.000000,462.428467 
z"/>
<path fill="#5D6BBF" opacity="1.000000" stroke="none" 
	d="
M1.000000,102.467941 
	C8.532531,101.529915 16.068220,100.632690 23.596863,100.688370 
	C35.324142,100.775085 47.043438,101.703232 58.772346,101.896049 
	C65.890953,102.013077 73.021271,101.417236 80.577507,101.524811 
	C79.075157,105.122475 76.729088,108.165565 75.305565,111.591942 
	C73.212311,116.630333 71.777618,121.942345 69.695786,127.238266 
	C66.539619,126.805634 63.598991,126.666824 60.988403,125.666595 
	C52.660633,122.475922 44.613483,118.470299 36.142967,115.766060 
	C31.161434,114.175697 26.048262,116.169785 22.935301,120.720451 
	C21.002211,123.546333 19.044586,123.573021 16.147474,122.882484 
	C11.153046,121.692047 6.054725,120.937469 1.000000,120.000000 
	C1.000000,114.311958 1.000000,108.623917 1.000000,102.467941 
z"/>
<path fill="#9CA6DA" opacity="1.000000" stroke="none" 
	d="
M1.000000,120.463181 
	C6.054725,120.937469 11.153046,121.692047 16.147474,122.882484 
	C19.044586,123.573021 21.002211,123.546333 22.935301,120.720451 
	C26.048262,116.169785 31.161434,114.175697 36.142967,115.766060 
	C44.613483,118.470299 52.660633,122.475922 60.988403,125.666595 
	C63.598991,126.666824 66.539619,126.805634 70.094269,127.298279 
	C76.649513,128.156845 82.832405,127.787262 87.653740,131.815811 
	C87.596634,132.349350 87.539536,132.882874 87.482430,133.416412 
	C80.733360,133.416412 73.984299,133.416412 67.235229,133.416412 
	C52.118046,133.260101 37.001045,133.081207 21.883596,132.957870 
	C15.235183,132.903625 8.585849,132.962463 1.468467,132.984985 
	C1.000000,128.975464 1.000000,124.950912 1.000000,120.463181 
z"/>
<path fill="#5C6AC0" opacity="1.000000" stroke="none" 
	d="
M301.000000,88.536819 
	C273.180786,89.184494 245.506409,87.434937 217.952148,84.081230 
	C217.948639,83.218552 217.945145,82.355865 217.941650,81.493187 
	C245.096664,77.019135 272.603058,76.788597 300.531555,75.999123 
	C301.000000,80.024544 301.000000,84.049088 301.000000,88.536819 
z"/>
<path fill="#7E8BD4" opacity="1.000000" stroke="none" 
	d="
M289.024719,474.033508 
	C292.755157,474.676697 296.485565,475.319855 300.608002,475.981506 
	C301.000000,476.444458 301.000000,476.888885 300.533752,477.612854 
	C253.739853,477.892334 207.412247,477.892334 159.750229,477.892334 
	C161.674927,479.140625 162.337463,479.570312 163.000000,480.000000 
	C159.969406,480.000000 156.938812,480.000000 153.124573,479.801392 
	C148.768463,479.130920 145.197754,478.277283 141.623230,478.260986 
	C132.079590,478.217499 122.534294,478.533752 112.991631,478.384033 
	C112.997520,477.414886 113.001434,476.768829 113.470230,476.063660 
	C171.168777,475.964752 228.402435,475.924927 285.972870,475.914001 
	C287.214691,475.306488 288.119690,474.670013 289.024719,474.033508 
z"/>
<path fill="#404EA9" opacity="1.000000" stroke="none" 
	d="
M1.000000,477.000000 
	C1.000000,475.933197 1.000000,474.866425 1.444759,473.451874 
	C13.584736,472.645538 25.279953,472.186951 37.429352,471.794250 
	C49.476635,472.624023 61.078251,473.280518 72.659157,474.198334 
	C78.231750,474.639954 83.765274,475.574493 88.851974,476.244263 
	C59.257717,476.403809 30.156225,479.701355 1.000000,477.000000 
z"/>
<path fill="#8390CF" opacity="1.000000" stroke="none" 
	d="
M1.000000,477.500000 
	C30.156225,479.701355 59.257717,476.403809 89.188622,476.380096 
	C94.964439,476.117249 99.939102,475.676971 105.312027,475.275146 
	C108.141975,475.583344 110.573662,475.853027 113.005341,476.122742 
	C113.001434,476.768829 112.997520,477.414886 112.600891,478.450165 
	C110.472122,479.226227 108.736061,479.613129 107.000000,480.000000 
	C72.824883,480.000000 38.649715,480.017822 4.474834,479.926941 
	C3.264229,479.923737 0.509424,481.531128 1.000000,477.500000 
z"/>
<path fill="#3F4BA9" opacity="1.000000" stroke="none" 
	d="
M163.468658,480.000000 
	C162.337463,479.570312 161.674927,479.140625 159.750229,477.892334 
	C207.412247,477.892334 253.739853,477.892334 300.533752,477.946167 
	C300.669800,478.666656 300.458649,479.784027 299.985382,479.909027 
	C298.898224,480.196198 297.683380,480.000000 296.520386,480.000000 
	C252.326035,480.000000 208.131668,480.000000 163.468658,480.000000 
z"/>
<path fill="#7E8ACE" opacity="1.000000" stroke="none" 
	d="
M36.975170,471.728394 
	C25.279953,472.186951 13.584736,472.645538 1.444759,473.052063 
	C1.000000,471.611115 1.000000,470.222198 1.000000,468.416656 
	C12.696395,468.387939 24.392790,468.775879 36.537670,469.534119 
	C36.982494,470.512421 36.978832,471.120392 36.975170,471.728394 
z"/>
<path fill="#4554A7" opacity="1.000000" stroke="none" 
	d="
M107.468658,480.000000 
	C108.736061,479.613129 110.472122,479.226227 112.598923,478.773193 
	C122.534294,478.533752 132.079590,478.217499 141.623230,478.260986 
	C145.197754,478.277283 148.768463,479.130920 152.670456,479.801392 
	C137.979111,480.000000 122.958214,480.000000 107.468658,480.000000 
z"/>
<path fill="#6A76C3" opacity="1.000000" stroke="none" 
	d="
M67.058823,133.826767 
	C73.984299,133.416412 80.733360,133.416412 87.482430,133.416412 
	C87.539536,132.882874 87.596634,132.349350 87.653740,131.815811 
	C82.832405,127.787262 76.649513,128.156845 70.460869,127.197800 
	C71.777618,121.942345 73.212311,116.630333 75.305565,111.591942 
	C76.729088,108.165565 79.075157,105.122475 81.049461,101.555191 
	C81.783455,101.103813 82.476677,101.005234 84.001038,100.916443 
	C104.605354,100.593361 124.378532,100.260498 144.106232,99.969719 
	C144.060776,100.011810 143.972519,99.924835 144.219757,100.089043 
	C145.008209,100.488426 145.549408,100.723610 146.047089,100.902649 
	C146.003586,100.846504 146.115845,100.759430 146.196594,100.981628 
	C146.890472,101.408646 147.503601,101.613464 148.430267,101.879486 
	C150.182983,103.109642 151.622131,104.278603 153.000214,105.827332 
	C150.950241,107.305084 149.041931,109.159393 146.959671,109.381279 
	C130.439560,111.141701 113.880386,112.532372 97.349823,114.201118 
	C94.876183,114.450829 92.489059,115.557594 90.061913,116.267876 
	C90.069534,116.791214 90.077156,117.314545 90.084778,117.837883 
	C92.536148,118.537720 94.964783,119.745689 97.442490,119.856514 
	C116.202583,120.695564 134.980453,121.160011 153.733429,122.119461 
	C158.596588,122.368271 163.391235,123.955956 168.152588,124.949509 
	C168.087830,124.970345 168.046341,124.840744 168.149078,125.125160 
	C168.523376,125.947441 168.794922,126.485313 169.030838,127.010986 
	C168.995193,126.998795 169.019501,126.927475 169.138290,127.201897 
	C169.582352,127.974907 169.907623,128.473511 170.490753,129.225464 
	C175.100906,140.653168 176.206314,152.126938 173.491364,163.941101 
	C156.124451,164.180832 148.373825,175.360687 143.315292,189.411499 
	C128.809875,183.564178 124.495193,185.434402 119.898743,199.615601 
	C108.015587,197.915268 95.829292,195.660233 85.124229,204.008804 
	C76.605286,197.615662 72.575737,188.343689 69.417664,178.703629 
	C65.733063,167.456345 64.046448,155.838074 65.067123,143.972321 
	C65.348648,140.699432 66.260025,137.480698 67.058823,133.826767 
z"/>
<path fill="#9EA8D8" opacity="1.000000" stroke="none" 
	d="
M85.149811,204.326508 
	C95.829292,195.660233 108.015587,197.915268 119.898743,199.615601 
	C124.495193,185.434402 128.809875,183.564178 143.315292,189.411499 
	C148.373825,175.360687 156.124451,164.180832 173.857300,164.035370 
	C186.631592,166.380219 193.851730,174.070480 198.299500,185.276047 
	C198.585327,187.652344 198.890869,189.646072 199.261795,192.066437 
	C210.107864,182.186569 214.678696,181.223404 224.855881,186.236237 
	C225.982239,187.448959 227.773682,188.497406 228.120773,189.902603 
	C229.694473,196.273987 234.063248,196.003113 239.330215,196.105255 
	C242.932587,196.175079 246.614822,198.630600 249.979721,200.520889 
	C251.003769,201.096130 251.524628,203.379120 251.396301,204.800568 
	C251.343811,205.382217 248.964066,206.141678 247.634827,206.158188 
	C237.841660,206.279907 228.046158,206.199371 218.251923,206.263031 
	C215.437744,206.281311 212.625290,206.563553 209.022629,206.667542 
	C196.485611,206.560776 184.738007,206.511230 172.519974,206.488785 
	C161.349884,206.504745 150.650223,206.493637 139.362381,206.420349 
	C123.977661,206.303085 109.181068,206.210144 94.384636,206.230164 
	C91.924179,206.233490 89.464386,206.729126 87.004288,206.997253 
	C86.394653,206.212921 85.785019,205.428574 85.149811,204.326508 
z"/>
<path fill="#F2F5FA" opacity="1.000000" stroke="none" 
	d="
M91.992142,362.006744 
	C91.992142,362.006744 91.814568,362.225525 91.562988,362.623871 
	C90.541229,365.021576 89.771042,367.020966 89.000862,369.020325 
	C88.636139,369.773560 88.271416,370.526825 87.613876,371.856201 
	C86.301476,375.735535 85.059669,378.990112 84.322975,382.355225 
	C83.541008,385.927185 85.233032,388.378693 88.958199,388.307922 
	C92.020447,388.249695 95.052101,387.130096 98.128136,386.908325 
	C99.031601,386.843170 100.040245,388.236786 101.000687,388.961853 
	C89.941223,398.931732 80.238747,396.007416 77.517212,381.391876 
	C76.641983,376.691620 76.891365,371.181549 78.520668,366.736267 
	C82.288635,356.455994 87.214851,346.600250 92.039780,336.037964 
	C92.580742,335.130676 92.753273,334.757721 92.925812,334.384796 
	C92.925819,334.384796 92.804428,334.195526 93.052597,333.833862 
	C93.499886,333.084747 93.699005,332.697266 93.898117,332.309784 
	C94.190659,331.375580 94.483192,330.441376 95.144989,329.389374 
	C96.007713,330.180420 96.501167,331.089294 97.384773,332.716736 
	C99.890266,327.222778 102.333107,322.553009 104.078499,317.635681 
	C104.628189,316.087006 103.307571,313.874451 102.842964,311.965759 
	C102.271729,311.677338 101.700493,311.388947 100.537506,311.234528 
	C99.639771,311.600311 99.333778,311.832092 99.027794,312.063873 
	C84.042465,328.234283 71.260635,346.031586 60.133118,365.027039 
	C58.636227,367.582336 58.009628,370.645691 56.525787,373.211090 
	C55.644794,374.734222 53.437325,377.007935 52.596886,376.717133 
	C50.907185,376.132446 48.674061,374.082092 48.588936,372.531006 
	C48.413788,369.339508 48.989269,365.878143 50.158524,362.879852 
	C56.317257,347.086975 62.786068,331.415283 69.071190,315.671173 
	C70.115990,313.053986 70.979065,310.326630 71.542976,307.571747 
	C71.804756,306.292847 71.147659,304.825867 70.907112,303.444153 
	C69.655128,303.672363 68.050583,303.490723 67.218216,304.206757 
	C64.855988,306.238861 62.310841,308.340424 60.749115,310.958313 
	C58.059769,315.466370 56.060097,320.385864 53.212360,326.291077 
	C52.116383,324.591187 50.448849,323.109680 50.188541,321.412354 
	C48.976025,313.506165 58.003834,298.391632 69.885849,298.262543 
	C72.218483,298.237183 76.041298,300.639679 76.625252,302.660034 
	C77.812386,306.767212 77.891289,311.472015 77.254417,315.756226 
	C76.522209,320.681763 74.521400,325.418701 72.711609,330.776428 
	C71.593643,333.488068 70.835663,335.660858 70.077682,337.833649 
	C70.604820,338.108063 71.131966,338.382477 71.659111,338.656891 
	C73.164612,336.480011 74.670105,334.303131 76.175613,332.126251 
	C76.175613,332.126251 76.109497,332.116516 76.371353,331.969452 
	C76.905266,331.259918 77.177322,330.697479 77.449387,330.135010 
	C77.449387,330.135010 77.178246,330.131989 77.456207,330.132385 
	C77.908173,329.769653 78.082176,329.406494 78.256187,329.043365 
	C78.256187,329.043365 78.055687,329.051117 78.318802,329.028870 
	C78.755318,328.678741 78.928734,328.350861 79.102150,328.022980 
	C79.102150,328.022980 79.039619,328.036743 79.333496,327.894257 
	C80.745338,326.174286 81.863312,324.596771 82.981293,323.019287 
	C82.981293,323.019287 83.019157,323.020599 83.270935,322.855286 
	C83.838310,322.188690 84.153908,321.687378 84.469498,321.186096 
	C84.469498,321.186096 84.311951,321.232239 84.598526,321.162170 
	C85.324478,320.436920 85.763863,319.781769 86.203255,319.126617 
	C86.203255,319.126617 86.136368,319.120148 86.418144,319.042419 
	C87.314552,318.195404 87.929176,317.426086 88.543808,316.656769 
	C88.543808,316.656769 88.528473,316.502441 88.728867,316.381714 
	C89.112633,315.914581 89.295990,315.568176 89.479355,315.221741 
	C89.479347,315.221741 89.249001,315.217651 89.540482,315.215210 
	C90.028107,314.855621 90.224266,314.498505 90.420425,314.141388 
	C90.420425,314.141388 90.256805,314.234680 90.573227,314.183960 
	C91.368546,313.510315 91.847435,312.887360 92.326324,312.264435 
	C92.326332,312.264435 92.245911,312.239868 92.558815,312.161285 
	C93.905731,311.048767 94.939743,310.014801 95.973755,308.980865 
	C95.973755,308.980865 95.998268,309.002441 96.303535,308.917999 
	C97.798615,307.940552 98.988419,307.047516 100.178223,306.154510 
	C100.178223,306.154510 100.105789,306.130707 100.467712,306.106750 
	C106.381859,303.349762 108.797005,306.959595 110.954491,311.090393 
	C110.954491,311.090393 110.942352,311.535980 110.979385,312.196228 
	C109.774658,318.224945 108.532890,323.593414 107.291122,328.961914 
	C107.291115,328.961914 107.045692,329.222473 106.819550,329.572571 
	C106.323616,330.558167 106.053833,331.193665 105.784042,331.829163 
	C105.784042,331.829163 105.881691,331.909912 105.578384,332.065247 
	C103.990128,334.911560 102.705177,337.602539 101.420227,340.293549 
	C101.420227,340.293549 101.346092,340.601501 101.247421,340.767273 
	C101.068649,341.283417 100.988548,341.633789 100.908440,341.984161 
	C100.908440,341.984161 100.969742,341.962646 100.717529,342.176514 
	C100.235405,343.252045 100.005493,344.113708 99.775581,344.975403 
	C99.775581,344.975403 99.884674,344.933228 99.595078,345.102905 
	C96.867691,350.850616 94.429916,356.428680 91.992142,362.006744 
z"/>
<path fill="#6C78C2" opacity="1.000000" stroke="none" 
	d="
M87.135284,207.304306 
	C89.464386,206.729126 91.924179,206.233490 94.384636,206.230164 
	C109.181068,206.210144 123.977661,206.303085 138.994049,206.677872 
	C137.229614,208.052414 135.245331,209.107269 133.108261,210.243347 
	C140.980835,215.586929 163.009308,213.361679 172.990402,206.461700 
	C184.738007,206.511230 196.485611,206.560776 208.615524,206.749161 
	C206.482239,209.620270 203.966644,212.352524 200.783493,215.394348 
	C174.521835,216.371857 148.927734,217.039795 123.333626,217.707733 
	C123.332146,218.381012 123.330666,219.054306 123.329185,219.727585 
	C145.901764,220.525223 168.474335,221.322861 191.046906,222.120483 
	C184.240601,228.101334 175.796371,230.535187 167.347305,232.789566 
	C151.290314,237.073914 135.564804,235.575821 119.967026,230.062546 
	C109.618484,226.404678 100.215858,221.425354 92.464996,213.588562 
	C90.611946,211.714981 88.992928,209.609940 87.135284,207.304306 
z"/>
<path fill="#F2F5FA" opacity="1.000000" stroke="none" 
	d="
M225.083923,339.988281 
	C225.083923,339.988281 224.876450,340.299713 224.611404,340.740906 
	C219.032761,348.996552 212.699875,374.261139 215.118927,380.001190 
	C216.396301,378.399719 217.449646,377.079102 218.502975,375.758484 
	C218.502975,375.758484 218.542664,375.734131 218.817673,375.600220 
	C219.441635,375.003143 219.790588,374.539917 220.139526,374.076691 
	C220.139526,374.076691 220.073959,374.075165 220.380341,373.944275 
	C223.988129,369.709351 227.289551,365.605255 230.590942,361.501160 
	C230.451416,361.386963 230.311874,361.272736 230.642776,361.144836 
	C231.763412,360.095642 232.413589,359.060059 233.063751,358.024475 
	C233.063751,358.024475 233.008087,358.005737 233.294159,357.911743 
	C234.123871,357.226715 234.667526,356.635712 235.431412,356.229279 
	C236.090591,357.241547 236.529541,358.069275 236.701843,359.113586 
	C235.518402,361.145233 234.601608,362.960266 233.684814,364.775299 
	C228.765854,371.026062 224.066345,377.471100 218.802063,383.416107 
	C217.092712,385.346466 213.855911,387.053345 211.406372,386.940460 
	C207.514908,386.761047 205.600235,383.276947 205.407394,379.517456 
	C205.251740,376.483002 205.866913,373.415497 205.988205,370.356598 
	C206.027618,369.362823 205.587036,368.350037 205.124130,366.247345 
	C203.343079,368.201324 202.234680,369.308655 201.251205,370.517578 
	C198.756973,373.583649 196.193008,376.511139 191.654709,374.558746 
	C187.197800,372.641296 184.567810,367.550873 185.499695,362.669617 
	C185.965042,360.232117 186.659561,357.838348 187.500488,354.752136 
	C188.735153,351.836731 189.666763,349.568878 190.717422,347.357544 
	C192.113113,344.420105 193.637619,341.542908 194.967972,338.577515 
	C195.055054,338.383392 193.961227,337.659485 193.105118,337.031128 
	C192.174698,336.220947 191.555878,335.561615 190.937042,334.902313 
	C193.102524,332.958191 195.082016,330.714447 197.516388,329.203583 
	C198.638275,328.507233 201.349777,328.623871 202.101807,329.471191 
	C203.372223,330.902618 204.455414,333.333374 204.175461,335.117706 
	C203.724701,337.990631 201.973785,340.635529 200.999146,343.455231 
	C198.841476,349.697510 196.780487,355.974548 194.795685,362.273834 
	C194.475586,363.289764 194.750748,364.493256 194.750748,366.417206 
	C210.550797,356.285400 215.644241,340.690674 220.517807,324.127136 
	C213.316467,324.127136 206.543549,324.127136 199.770615,324.127136 
	C199.710556,323.638214 199.650482,323.149292 199.590424,322.660370 
	C201.583069,322.188538 203.553650,321.524475 205.573837,321.292633 
	C208.213425,320.989746 210.905716,320.806030 213.551559,320.965485 
	C219.788483,321.341431 223.989655,319.673370 226.218002,312.918945 
	C227.892044,307.844666 231.430222,303.315063 234.507324,298.793976 
	C237.530457,294.352203 241.896057,293.979248 246.870224,297.558380 
	C243.750076,302.518951 240.610443,307.510498 236.893982,312.812683 
	C231.651062,315.455231 228.869843,321.525452 229.978806,326.957275 
	C229.945114,327.390167 229.911407,327.823029 229.595291,328.826172 
	C227.903229,332.927002 226.493561,336.457642 225.083923,339.988281 
z"/>
<path fill="#F0F3FA" opacity="1.000000" stroke="none" 
	d="
M105.139206,360.595032 
	C105.139206,360.595032 105.115524,360.286041 104.997360,359.794312 
	C106.071030,353.262360 107.262871,347.222107 108.793793,341.016693 
	C111.763351,341.019623 114.393822,341.187714 117.024292,341.355835 
	C116.500557,343.192291 116.055359,345.055634 115.437675,346.859924 
	C113.874084,351.427185 112.233032,355.967896 110.623001,360.519257 
	C111.221451,360.968597 111.819901,361.417908 112.418350,361.867218 
	C114.446426,360.493835 116.474495,359.120453 118.502563,357.747070 
	C118.502563,357.747070 118.611366,357.763123 118.927856,357.571442 
	C122.221237,353.298401 125.198135,349.217010 128.175018,345.135620 
	C128.175018,345.135620 128.082962,345.102692 128.321716,345.038269 
	C128.717331,344.652161 128.874161,344.330444 129.031006,344.008759 
	C129.031006,344.008759 128.992706,344.001740 129.259872,343.853271 
	C129.842178,343.193665 130.157318,342.682556 130.472473,342.171417 
	C130.472473,342.171417 130.194672,342.146057 130.476654,342.162659 
	C130.960403,341.821198 131.162186,341.463165 131.363968,341.105133 
	C131.363968,341.105133 131.204636,341.208710 131.528824,341.150635 
	C132.323715,340.452240 132.794434,339.811920 133.265152,339.171600 
	C133.265152,339.171600 133.113815,339.110870 133.369781,339.082306 
	C133.833313,338.718781 134.040878,338.383820 134.248444,338.048859 
	C134.248428,338.048859 134.124985,338.114136 134.435577,338.042816 
	C135.669739,336.900421 136.593323,335.829346 137.516891,334.758270 
	C137.516891,334.758270 137.712814,334.763458 138.064484,334.533691 
	C141.221909,333.005615 143.943542,330.974121 146.859879,330.639404 
	C149.222839,330.368286 152.254883,331.607635 154.167892,333.178406 
	C155.559692,334.321198 156.174271,337.850494 152.411133,337.394745 
	C145.714233,336.583710 142.620743,340.962921 139.099030,345.588867 
	C133.975754,352.782806 128.423737,359.486694 128.852219,368.591949 
	C129.408325,368.937958 129.964447,369.283936 130.520554,369.629944 
	C133.129517,366.200684 135.738495,362.771393 138.582275,359.106964 
	C140.108658,356.792419 141.400223,354.713074 142.906418,352.438721 
	C143.501968,351.574432 143.882889,350.905121 144.504059,350.044861 
	C145.235596,348.967499 145.726898,348.081055 146.451172,347.037140 
	C146.959488,346.400726 147.234802,345.921783 147.768402,345.205780 
	C149.966583,342.250977 152.402008,340.880798 155.660538,342.546204 
	C158.929810,344.217133 157.786179,346.890533 156.744583,349.630859 
	C156.336624,350.222626 156.174164,350.611115 156.004166,350.998596 
	C155.996628,350.997559 156.004318,351.010925 155.757614,351.178162 
	C155.311234,351.899261 155.111557,352.453125 154.946472,352.995117 
	C154.981064,352.983185 154.957153,352.914001 154.712952,353.090088 
	C154.283127,353.828003 154.097519,354.389862 153.696274,355.144165 
	C153.305023,355.877838 153.129395,356.419037 152.694885,357.158447 
	C151.660385,358.558289 150.884766,359.759918 150.109146,360.961548 
	C150.548279,361.349396 150.987411,361.737274 151.426544,362.125122 
	C153.228088,360.401794 155.029617,358.678467 157.129959,356.816589 
	C158.654510,355.801331 159.880264,354.924622 161.441528,353.996674 
	C163.161255,352.891815 164.545441,351.838165 165.934326,351.233887 
	C165.903229,352.878418 165.867447,354.073608 165.831665,355.268799 
	C160.281433,359.497528 154.221359,363.229004 149.401901,368.170471 
	C147.086380,370.544556 147.312149,375.275116 146.043350,378.815308 
	C142.428375,388.901917 138.636871,398.925262 134.594025,409.350525 
	C134.009567,409.938141 133.745911,410.148682 133.482254,410.359192 
	C133.482254,410.359192 133.393707,410.179352 133.062073,410.354919 
	C132.416580,410.969788 132.102753,411.409027 131.788925,411.848297 
	C131.788925,411.848297 131.857162,411.853333 131.512207,411.933350 
	C127.771385,414.418762 124.401604,413.635071 121.039360,411.930511 
	C121.039360,411.930511 121.015816,411.991058 120.890778,411.655701 
	C116.444290,406.873535 115.576157,401.869720 118.389847,396.304626 
	C119.279892,394.544250 120.262772,392.830780 121.203163,391.095856 
	C121.491692,391.001038 121.724037,390.829956 122.284546,390.224030 
	C123.938622,388.078918 125.208351,386.292328 126.478073,384.505707 
	C126.478065,384.505707 126.501999,384.481323 126.779602,384.306244 
	C128.119843,382.837524 129.182465,381.543915 130.245117,380.250305 
	C130.245117,380.250305 129.998825,380.009949 130.387909,380.008118 
	C131.287628,379.419708 131.798248,378.833099 132.308868,378.246490 
	C132.308868,378.246490 132.115128,378.142578 132.507675,378.079132 
	C135.432678,375.523254 137.965134,373.030853 140.497284,370.513062 
	C140.496964,370.487671 140.547806,370.486938 140.857956,370.282166 
	C141.953064,367.334717 142.738007,364.592041 143.522964,361.849396 
	C143.123703,361.631287 142.724442,361.413208 142.325180,361.195129 
	C141.452148,361.997192 140.470810,362.710602 139.727661,363.618927 
	C137.947021,365.795349 136.437454,368.210785 134.533356,370.265564 
	C129.700623,375.480743 125.064980,374.511414 122.508080,367.837494 
	C121.890488,366.225464 121.522583,364.517731 120.843880,362.178558 
	C117.374985,367.120209 113.538376,368.154297 108.956299,365.115112 
	C108.402122,364.427246 107.847939,363.739410 106.957146,362.576294 
	C106.126762,361.599030 105.632980,361.097046 105.139206,360.595032 
M129.723114,387.224915 
	C128.115997,389.339142 126.195374,391.288818 124.978233,393.607727 
	C123.319450,396.768036 121.868767,400.128601 121.014969,403.573334 
	C120.696701,404.857452 122.310646,406.620514 123.043518,408.165161 
	C124.412300,407.396240 126.300255,406.963531 127.055580,405.797272 
	C129.649124,401.792816 132.205872,397.686188 134.083557,393.320435 
	C135.668625,389.635010 136.290558,385.535339 137.338791,381.619019 
	C136.837845,381.354889 136.336914,381.090759 135.835983,380.826660 
	C133.967651,382.789368 132.099319,384.752075 129.723114,387.224915 
z"/>
<path fill="#6B77C1" opacity="1.000000" stroke="none" 
	d="
M224.894379,185.817566 
	C214.678696,181.223404 210.107864,182.186569 199.261795,192.066437 
	C198.890869,189.646072 198.585327,187.652344 198.467163,185.014740 
	C204.663208,175.623032 207.341949,165.813110 208.083374,155.336472 
	C208.803986,145.153900 206.164963,135.589066 203.212189,125.812820 
	C204.931213,124.923912 206.444107,123.842522 207.989273,123.794273 
	C213.708939,123.615639 219.439240,123.777939 225.165543,123.812119 
	C225.574112,123.846886 225.982666,123.881660 226.696411,123.954880 
	C228.040756,130.163528 229.114304,136.328171 230.112091,142.505051 
	C232.334930,156.265610 230.462616,169.550232 225.429123,182.470856 
	C225.077209,183.374207 225.089798,184.419556 224.894379,185.817566 
z"/>
<path fill="#F2F5FA" opacity="1.000000" stroke="none" 
	d="
M165.876068,355.709534 
	C165.867447,354.073608 165.903229,352.878418 166.155212,350.951172 
	C167.500458,345.786194 168.629517,341.353333 169.758575,336.920441 
	C175.029282,317.354462 183.267929,299.136902 194.962921,282.579956 
	C197.507385,278.977661 200.554611,275.414337 204.132217,272.930603 
	C209.774719,269.013397 214.977509,271.589539 214.195129,278.235352 
	C213.301895,285.822632 211.596558,293.809509 208.069870,300.471832 
	C203.167221,309.733551 196.960800,318.567413 189.968842,326.382294 
	C183.779984,333.299530 178.168976,340.082977 175.875626,349.815125 
	C176.499802,352.603271 177.259125,354.820068 178.018433,357.036865 
	C176.080902,359.901428 174.258545,362.855255 172.145050,365.583496 
	C171.376968,366.575012 169.759216,367.744843 168.809250,367.539246 
	C167.712585,367.301880 166.302246,365.728821 166.128098,364.570404 
	C165.713928,361.815552 165.948196,358.963196 165.876068,355.709534 
M186.991684,314.251129 
	C186.595856,317.463409 186.200043,320.675659 185.788956,324.011841 
	C195.090469,318.498199 211.773987,286.600922 209.401871,277.281036 
	C205.658264,281.853455 201.800491,285.532867 199.212784,289.955414 
	C194.757767,297.569305 191.093735,305.645996 186.991684,314.251129 
z"/>
<path fill="#99A5DC" opacity="1.000000" stroke="none" 
	d="
M191.510483,222.086685 
	C168.474335,221.322861 145.901764,220.525223 123.329185,219.727585 
	C123.330666,219.054306 123.332146,218.381012 123.333626,217.707733 
	C148.927734,217.039795 174.521835,216.371857 200.583130,215.630341 
	C211.039917,215.698990 221.031647,215.755463 231.018509,216.005814 
	C242.669922,216.297897 254.318909,216.713730 265.964508,217.185577 
	C268.314148,217.280792 270.643921,217.866669 272.928253,218.979477 
	C245.968262,222.088913 218.966278,221.945312 191.510483,222.086685 
z"/>
<path fill="#6C76B9" opacity="1.000000" stroke="none" 
	d="
M161.106003,354.047913 
	C159.880264,354.924622 158.654510,355.801331 156.846542,356.885864 
	C155.160812,357.049225 154.057281,357.004730 152.953766,356.960236 
	C153.129395,356.419037 153.305023,355.877838 153.869415,354.914307 
	C154.491180,353.965973 154.724167,353.439972 154.957153,352.914001 
	C154.957153,352.914001 154.981064,352.983185 155.121948,352.767334 
	C155.510010,352.037933 155.757156,351.524414 156.004303,351.010925 
	C156.004318,351.010925 155.996628,350.997559 156.182266,350.746277 
	C156.575302,350.139191 156.782700,349.783386 156.990112,349.427582 
	C157.786179,346.890533 158.929810,344.217133 155.660538,342.546204 
	C152.402008,340.880798 149.966583,342.250977 147.625488,345.084534 
	C147.224274,345.200348 146.937042,344.959564 147.009018,344.666656 
	C147.525421,342.008179 147.158783,340.573273 144.499710,342.391937 
	C142.918213,343.473602 141.499176,344.792847 139.842346,345.845703 
	C139.677582,345.686157 139.345322,345.369843 139.345322,345.369843 
	C142.620743,340.962921 145.714233,336.583710 152.411133,337.394745 
	C156.174271,337.850494 155.559692,334.321198 154.167892,333.178406 
	C152.254883,331.607635 149.222839,330.368286 146.859879,330.639404 
	C143.943542,330.974121 141.221909,333.005615 138.114197,334.449219 
	C138.878494,333.056915 139.637802,330.703979 141.078735,330.161499 
	C143.610870,329.208252 146.556091,329.153473 149.335480,329.100891 
	C153.842300,329.015564 155.800873,331.394257 156.807114,335.896362 
	C157.889816,340.740570 160.369431,345.272583 162.430908,350.213257 
	C161.464600,350.989716 160.306946,351.493683 158.938904,352.181458 
	C158.493820,352.655121 158.259140,352.944946 158.319733,353.359375 
	C159.445312,353.671936 160.275650,353.859924 161.106003,354.047913 
M148.492783,339.477509 
	C148.492783,339.477509 148.504044,339.513641 148.492783,339.477509 
z"/>
<path fill="#6F79B9" opacity="1.000000" stroke="none" 
	d="
M109.079704,365.436707 
	C113.538376,368.154297 117.374985,367.120209 120.843880,362.178558 
	C121.522583,364.517731 121.890488,366.225464 122.508080,367.837494 
	C125.064980,374.511414 129.700623,375.480743 134.533356,370.265564 
	C136.437454,368.210785 137.947021,365.795349 139.727661,363.618927 
	C140.470810,362.710602 141.452148,361.997192 142.325180,361.195129 
	C142.724442,361.413208 143.123703,361.631287 143.522964,361.849396 
	C142.738007,364.592041 141.953064,367.334717 140.730621,370.072754 
	C140.131058,369.657959 139.968948,369.247742 139.806839,368.837555 
	C139.578857,369.094086 139.350861,369.350616 139.122864,369.607147 
	C139.581116,369.917572 140.039352,370.227997 140.497589,370.538391 
	C137.965134,373.030853 135.432678,375.523254 132.595093,378.145813 
	C130.955551,377.393951 129.621704,376.511108 128.286575,375.630219 
	C126.509735,374.457855 124.054848,373.681335 123.095314,372.033600 
	C121.095963,368.600189 119.310867,366.806030 114.950348,368.482727 
	C113.585587,369.007507 111.149055,366.744995 109.079704,365.436707 
M140.473343,366.505646 
	C140.473343,366.505646 140.513641,366.492096 140.473343,366.505646 
z"/>
<path fill="#E8ECF8" opacity="1.000000" stroke="none" 
	d="
M116.110085,320.573700 
	C116.043282,320.306610 115.976486,320.039520 115.602600,319.470184 
	C115.295509,319.167938 115.228104,319.154175 115.228104,319.154175 
	C115.311279,319.321777 115.394463,319.489380 115.972717,319.320221 
	C118.624168,315.643250 121.264542,317.118469 123.869316,318.239502 
	C123.869316,318.239502 123.871910,318.133301 123.922073,318.487671 
	C126.208244,321.828217 124.303604,323.916962 122.418686,326.009979 
	C122.418686,326.009979 122.172104,326.143250 121.857483,326.477966 
	C121.328140,327.861511 121.113419,328.910278 120.898682,329.959076 
	C120.840279,330.279114 120.770683,330.596741 120.360260,331.307800 
	C118.092110,333.125977 116.153595,334.548309 113.152130,336.750519 
	C112.912193,333.979126 112.771355,332.352417 112.630516,330.725739 
	C112.630516,330.725739 112.608017,330.633575 112.827957,330.518860 
	C113.375443,329.945618 113.702988,329.487122 114.030533,329.028595 
	C114.030533,329.028595 114.000000,329.000000 114.284431,328.861389 
	C114.728676,328.135742 114.888496,327.548676 115.048309,326.961639 
	C115.048309,326.961639 115.187737,326.790405 115.382584,326.418243 
	C115.761360,325.360504 115.945290,324.674927 116.129211,323.989349 
	C116.129211,323.989349 116.044296,324.037506 116.310638,323.837036 
	C116.421349,322.615601 116.265717,321.594666 116.110085,320.573700 
z"/>
<path fill="#6C76B9" opacity="1.000000" stroke="none" 
	d="
M112.317764,330.735535 
	C112.771355,332.352417 112.912193,333.979126 113.152130,336.750519 
	C116.153595,334.548309 118.092110,333.125977 120.334023,331.550354 
	C119.811974,333.555176 118.986534,335.713318 117.923309,338.493134 
	C124.051582,345.726318 112.912354,350.270111 114.171211,357.584900 
	C115.137764,357.584900 116.491898,357.584900 118.174294,357.665985 
	C116.474495,359.120453 114.446426,360.493835 112.418350,361.867218 
	C111.819901,361.417908 111.221451,360.968597 110.623001,360.519257 
	C112.233032,355.967896 113.874084,351.427185 115.437675,346.859924 
	C116.055359,345.055634 116.500557,343.192291 117.024292,341.355835 
	C114.393822,341.187714 111.763351,341.019623 108.465210,340.978455 
	C107.578178,341.082092 107.358818,341.058777 107.139465,341.035492 
	C108.761314,337.605438 110.383163,334.175385 112.317764,330.735535 
z"/>
<path fill="#E6EAFA" opacity="1.000000" stroke="none" 
	d="
M178.263214,356.952698 
	C177.259125,354.820068 176.499802,352.603271 175.878891,350.189453 
	C177.461044,349.155487 179.229691,348.609802 180.289093,347.428223 
	C183.800461,343.511932 187.056274,339.366516 190.673584,335.105652 
	C191.555878,335.561615 192.174698,336.220947 192.946228,337.338867 
	C188.622742,343.819366 184.146545,349.841248 179.670349,355.863098 
	C179.282898,356.198242 178.895447,356.533386 178.263214,356.952698 
z"/>
<path fill="#94A0DD" opacity="1.000000" stroke="none" 
	d="
M59.793190,206.364685 
	C60.723125,204.720551 61.636318,202.650177 63.194515,201.873001 
	C68.214851,199.369019 74.699341,201.253464 79.213799,206.530487 
	C72.485558,206.530487 66.278656,206.530487 59.793190,206.364685 
z"/>
<path fill="#707BB5" opacity="1.000000" stroke="none" 
	d="
M218.189392,375.508240 
	C217.449646,377.079102 216.396301,378.399719 215.118927,380.001190 
	C212.699875,374.261139 219.032761,348.996552 224.592194,340.927002 
	C223.245758,346.040894 221.555878,351.383392 220.089905,356.786621 
	C218.744675,361.744904 217.521164,366.745148 216.529785,371.783142 
	C216.327072,372.813263 217.394073,374.093201 218.189392,375.508240 
z"/>
<path fill="#E2E9F6" opacity="1.000000" stroke="none" 
	d="
M230.095917,326.937683 
	C228.869843,321.525452 231.651062,315.455231 236.672745,313.071136 
	C236.702255,313.757660 236.376190,314.496460 235.729202,315.796967 
	C235.015289,317.448364 234.622269,318.538055 233.969650,320.347534 
	C238.568756,319.986450 242.292267,319.694122 246.015778,319.401794 
	C246.446640,319.565491 246.877502,319.729218 247.455017,320.373260 
	C243.611557,321.817108 239.661530,323.063019 235.616165,323.637665 
	C233.212662,323.979065 230.900314,323.669800 230.433777,326.830536 
	C230.433777,326.830536 230.213043,326.918121 230.095917,326.937683 
z"/>
<path fill="#717BBA" opacity="1.000000" stroke="none" 
	d="
M179.984497,355.728149 
	C184.146545,349.841248 188.622742,343.819366 193.257812,337.489746 
	C193.961227,337.659485 195.055054,338.383392 194.967972,338.577515 
	C193.637619,341.542908 192.113113,344.420105 190.717422,347.357544 
	C189.666763,349.568878 188.735153,351.836731 187.534393,354.387451 
	C186.602203,351.651184 185.277481,350.652313 182.782303,353.295990 
	C182.010040,354.114227 181.129578,354.830322 179.984497,355.728149 
z"/>
<path fill="#E3E8F7" opacity="1.000000" stroke="none" 
	d="
M102.760818,312.354919 
	C103.307571,313.874451 104.628189,316.087006 104.078499,317.635681 
	C102.333107,322.553009 99.890266,327.222778 97.384773,332.716736 
	C96.501167,331.089294 96.007713,330.180420 95.317917,329.142700 
	C95.827034,327.462067 96.532501,325.910339 97.543396,324.040833 
	C97.981842,323.508728 98.056313,323.273956 98.072227,323.018768 
	C99.607704,319.593872 101.143181,316.169006 102.760818,312.354919 
z"/>
<path fill="#6E77B7" opacity="1.000000" stroke="none" 
	d="
M101.281784,388.836273 
	C100.040245,388.236786 99.031601,386.843170 98.128136,386.908325 
	C95.052101,387.130096 92.020447,388.249695 88.958199,388.307922 
	C85.233032,388.378693 83.541008,385.927185 84.322975,382.355225 
	C85.059669,378.990112 86.301476,375.735535 87.563370,372.171204 
	C87.734123,374.095093 87.694855,376.281769 87.581917,378.464661 
	C87.470535,380.617645 86.365471,383.823364 87.343323,384.674042 
	C88.871750,386.003662 91.783157,386.024994 94.118042,386.065979 
	C96.391518,386.105927 98.719681,385.030884 100.946350,385.246277 
	C103.918442,385.533813 103.658943,387.129852 101.281784,388.836273 
z"/>
<path fill="#DADB92" opacity="1.000000" stroke="none" 
	d="
M82.030678,242.710236 
	C83.312500,241.450623 84.518028,240.259155 85.967957,239.686569 
	C86.327705,239.544525 88.073128,241.388733 88.102661,242.352997 
	C88.133415,243.357056 86.631744,245.357117 86.197014,245.253647 
	C84.718407,244.901840 83.414978,243.813873 82.030678,242.710236 
z"/>
<path fill="#6C76B9" opacity="1.000000" stroke="none" 
	d="
M127.804077,345.155365 
	C125.198135,349.217010 122.221237,353.298401 118.937317,357.517273 
	C119.038872,355.086487 119.447464,352.518219 120.003181,349.025085 
	C121.948685,348.016968 124.690903,346.596039 127.804077,345.155365 
z"/>
<path fill="#6F79B9" opacity="1.000000" stroke="none" 
	d="
M120.887543,391.205292 
	C120.262772,392.830780 119.279892,394.544250 118.389847,396.304626 
	C115.576157,401.869720 116.444290,406.873535 120.917786,411.637634 
	C119.827744,411.254669 118.163895,410.855194 117.414139,409.803864 
	C113.449890,404.245056 115.003151,395.726257 120.887543,391.205292 
z"/>
<path fill="#DEE5F8" opacity="1.000000" stroke="none" 
	d="
M236.968475,358.896973 
	C236.529541,358.069275 236.090591,357.241547 235.447876,355.996552 
	C235.244095,355.579254 235.284180,355.114563 235.284180,355.114563 
	C235.284180,355.114563 235.136856,355.047668 235.353790,355.003326 
	C235.744629,354.642853 235.918503,354.326752 236.092377,354.010620 
	C236.092377,354.010620 236.028015,354.026917 236.328079,353.886627 
	C238.198975,351.600250 239.769791,349.454132 241.340607,347.308014 
	C241.340607,347.308014 241.184555,347.280914 241.488800,347.337524 
	C242.207993,347.320587 242.622955,347.247070 243.037918,347.173553 
	C243.037918,347.173553 243.141556,347.311646 243.312012,347.640198 
	C243.101425,349.580292 242.720398,351.191833 242.339386,352.803375 
	C241.968018,353.118866 241.596634,353.434357 240.924210,354.141083 
	C240.354111,355.013397 240.085068,355.494476 239.816010,355.975525 
	C239.815994,355.975525 239.918152,355.936035 239.634949,356.051819 
	C238.557312,357.077393 237.762909,357.987183 236.968475,358.896973 
z"/>
<path fill="#707BB3" opacity="1.000000" stroke="none" 
	d="
M161.441528,353.996674 
	C160.275650,353.859924 159.445312,353.671936 158.505066,353.149170 
	C158.646530,352.542114 158.897919,352.269897 159.149307,351.997650 
	C160.306946,351.493683 161.464600,350.989716 162.757294,350.298218 
	C164.999908,345.857056 167.107468,341.603424 169.486786,337.135132 
	C168.629517,341.353333 167.500458,345.786194 166.150513,350.501831 
	C164.545441,351.838165 163.161255,352.891815 161.441528,353.996674 
z"/>
<path fill="#6F79B9" opacity="1.000000" stroke="none" 
	d="
M106.947937,341.325867 
	C107.358818,341.058777 107.578178,341.082092 108.126122,341.143616 
	C107.262871,347.222107 106.071030,353.262360 104.901978,359.672241 
	C104.170502,358.767822 102.579880,357.317413 102.804985,356.249908 
	C103.845894,351.313782 105.391579,346.484070 106.947937,341.325867 
z"/>
<path fill="#6E77B7" opacity="1.000000" stroke="none" 
	d="
M107.637848,328.795441 
	C108.532890,323.593414 109.774658,318.224945 111.048080,312.408234 
	C111.953201,312.817963 112.826668,313.675934 113.943558,315.041077 
	C114.137009,316.339294 114.087029,317.130280 114.037048,317.921295 
	C113.238861,319.799377 112.598076,321.766663 111.598694,323.530762 
	C110.577164,325.333954 109.203865,326.937836 107.637848,328.795441 
z"/>
<path fill="#707BB5" opacity="1.000000" stroke="none" 
	d="
M230.814850,326.678497 
	C230.900314,323.669800 233.212662,323.979065 235.616165,323.637665 
	C239.661530,323.063019 243.611557,321.817108 247.762604,320.531891 
	C248.337173,320.721405 248.750809,321.232635 249.164429,321.743866 
	C246.531342,322.806335 243.972046,324.155273 241.246140,324.857452 
	C237.970139,325.701355 234.552338,325.994720 230.814850,326.678497 
z"/>
<path fill="#6E77B7" opacity="1.000000" stroke="none" 
	d="
M92.293945,361.851990 
	C94.429916,356.428680 96.867691,350.850616 99.573792,345.048401 
	C100.680885,351.846130 96.019768,356.506012 92.293945,361.851990 
z"/>
<path fill="#707BB5" opacity="1.000000" stroke="none" 
	d="
M230.244995,361.574280 
	C227.289551,365.605255 223.988129,369.709351 220.391312,373.975189 
	C221.817490,368.760223 224.826447,364.393921 230.244995,361.574280 
z"/>
<path fill="#6872B9" opacity="1.000000" stroke="none" 
	d="
M122.704468,326.271301 
	C124.303604,323.916962 126.208244,321.828217 123.869049,318.490906 
	C124.693947,318.745911 126.310989,319.239899 126.431099,319.977631 
	C126.956619,323.205444 127.048172,326.503906 127.297195,329.776764 
	C126.784897,330.284454 126.272598,330.792175 125.760300,331.299896 
	C124.836945,329.710815 123.913597,328.121735 122.704468,326.271301 
z"/>
<path fill="#6872B9" opacity="1.000000" stroke="none" 
	d="
M114.349258,318.184448 
	C114.087029,317.130280 114.137009,316.339294 114.100571,315.314484 
	C117.219063,315.911133 120.423973,316.741547 123.749100,317.905762 
	C121.264542,317.118469 118.624168,315.643250 116.224113,319.195374 
	C115.540787,319.087402 115.101128,318.767487 114.349258,318.184448 
z"/>
<path fill="#707BB5" opacity="1.000000" stroke="none" 
	d="
M245.792068,319.189209 
	C242.292267,319.694122 238.568756,319.986450 233.969650,320.347534 
	C234.622269,318.538055 235.015289,317.448364 235.662476,316.096741 
	C237.071915,316.555908 238.143143,317.567139 239.401703,317.931671 
	C241.391251,318.507874 243.506378,318.650482 245.792068,319.189209 
z"/>
<path fill="#707BB5" opacity="1.000000" stroke="none" 
	d="
M225.396164,339.855072 
	C226.493561,336.457642 227.903229,332.927002 229.555466,329.150116 
	C231.171036,333.544220 228.063477,336.490814 225.396164,339.855072 
z"/>
<path fill="#6E77B7" opacity="1.000000" stroke="none" 
	d="
M101.799706,340.316315 
	C102.705177,337.602539 103.990128,334.911560 105.545929,332.010803 
	C105.563698,335.055847 107.362099,339.184662 101.799706,340.316315 
z"/>
<path fill="#7177B3" opacity="1.000000" stroke="none" 
	d="
M75.819153,332.053467 
	C74.670105,334.303131 73.164612,336.480011 71.659111,338.656891 
	C71.131966,338.382477 70.604820,338.108063 70.077682,337.833649 
	C70.835663,335.660858 71.593643,333.488068 72.595596,331.053284 
	C73.713951,331.187775 74.588326,331.584229 75.819153,332.053467 
z"/>
<path fill="#6E77B7" opacity="1.000000" stroke="none" 
	d="
M110.969940,310.686707 
	C108.797005,306.959595 106.381859,303.349762 100.456024,306.143005 
	C105.445465,302.126312 109.964539,303.817291 110.969940,310.686707 
z"/>
<path fill="#6F79B9" opacity="1.000000" stroke="none" 
	d="
M121.131859,412.290161 
	C124.401604,413.635071 127.771385,414.418762 131.510284,411.899200 
	C128.623978,415.850311 124.841934,416.158051 121.131859,412.290161 
z"/>
<path fill="#707BB5" opacity="1.000000" stroke="none" 
	d="
M236.701843,359.113586 
	C237.762909,357.987183 238.557312,357.077393 239.615051,356.000793 
	C238.035736,358.774994 236.193100,361.716003 234.017639,364.716156 
	C234.601608,362.960266 235.518402,361.145233 236.701843,359.113586 
z"/>
<path fill="#707BB5" opacity="1.000000" stroke="none" 
	d="
M240.984253,347.353241 
	C239.769791,349.454132 238.198975,351.600250 236.341064,353.917175 
	C237.578613,351.858124 239.103241,349.628296 240.984253,347.353241 
z"/>
<path fill="#6F79B9" opacity="1.000000" stroke="none" 
	d="
M126.106949,384.519836 
	C125.208351,386.292328 123.938622,388.078918 122.375999,390.024689 
	C123.300682,388.300568 124.518257,386.417267 126.106949,384.519836 
z"/>
<path fill="#6E77B7" opacity="1.000000" stroke="none" 
	d="
M89.358627,368.914368 
	C89.771042,367.020966 90.541229,365.021576 91.567337,362.764709 
	C91.120964,364.607574 90.418678,366.707977 89.358627,368.914368 
z"/>
<path fill="#7177B3" opacity="1.000000" stroke="none" 
	d="
M82.639404,323.086395 
	C81.863312,324.596771 80.745338,326.174286 79.349670,327.921875 
	C80.147156,326.445831 81.222328,324.799683 82.639404,323.086395 
z"/>
<path fill="#707BB5" opacity="1.000000" stroke="none" 
	d="
M242.659943,352.659088 
	C242.720398,351.191833 243.101425,349.580292 243.395920,347.619873 
	C247.212479,349.270630 244.584702,350.860626 242.659943,352.659088 
z"/>
<path fill="#6F79B9" opacity="1.000000" stroke="none" 
	d="
M129.884674,380.303009 
	C129.182465,381.543915 128.119843,382.837524 126.789597,384.292389 
	C127.522736,383.087646 128.523483,381.721680 129.884674,380.303009 
z"/>
<path fill="#6E77B7" opacity="1.000000" stroke="none" 
	d="
M95.611313,309.007782 
	C94.939743,310.014801 93.905731,311.048767 92.577560,312.198914 
	C93.271889,311.221649 94.260376,310.128174 95.611313,309.007782 
z"/>
<path fill="#6C76B9" opacity="1.000000" stroke="none" 
	d="
M137.163635,334.736328 
	C136.593323,335.829346 135.669739,336.900421 134.468399,338.104431 
	C135.063889,337.063049 135.937149,335.888733 137.163635,334.736328 
z"/>
<path fill="#6E77B7" opacity="1.000000" stroke="none" 
	d="
M99.826721,306.164001 
	C98.988419,307.047516 97.798615,307.940552 96.295746,308.904602 
	C97.146866,308.041565 98.311043,307.107544 99.826721,306.164001 
z"/>
<path fill="#707BB5" opacity="1.000000" stroke="none" 
	d="
M232.747406,358.139465 
	C232.413589,359.060059 231.763412,360.095642 230.859467,361.306671 
	C231.214142,360.406250 231.822601,359.330322 232.747406,358.139465 
z"/>
<path fill="#6872B9" opacity="1.000000" stroke="none" 
	d="
M121.191002,329.773865 
	C121.113419,328.910278 121.328140,327.861511 121.815887,326.611816 
	C121.887039,327.470184 121.685181,328.529388 121.191002,329.773865 
z"/>
<path fill="#6E77B7" opacity="1.000000" stroke="none" 
	d="
M106.064133,331.804321 
	C106.053833,331.193665 106.323616,330.558167 106.788773,329.748871 
	C106.770844,330.309875 106.557541,331.044708 106.064133,331.804321 
z"/>
<path fill="#6E77B7" opacity="1.000000" stroke="none" 
	d="
M88.216469,316.685394 
	C87.929176,317.426086 87.314552,318.195404 86.423660,319.075562 
	C86.727982,318.362305 87.308556,317.538147 88.216469,316.685394 
z"/>
<path fill="#6F79B9" opacity="1.000000" stroke="none" 
	d="
M132.015747,378.340729 
	C131.798248,378.833099 131.287628,379.419708 130.509811,380.130493 
	C130.735962,379.648071 131.229309,379.041504 132.015747,378.340729 
z"/>
<path fill="#6E77B7" opacity="1.000000" stroke="none" 
	d="
M92.031006,312.363739 
	C91.847435,312.887360 91.368546,313.510315 90.620270,314.265564 
	C90.812485,313.752899 91.274094,313.107971 92.031006,312.363739 
z"/>
<path fill="#707BB5" opacity="1.000000" stroke="none" 
	d="
M235.011871,355.285522 
	C235.284180,355.114563 235.244095,355.579254 235.227631,355.811981 
	C234.667526,356.635712 234.123871,357.226715 233.303223,357.939667 
	C233.597321,357.193237 234.168427,356.324890 235.011871,355.285522 
z"/>
<path fill="#6E77B7" opacity="1.000000" stroke="none" 
	d="
M85.915909,319.246857 
	C85.763863,319.781769 85.324478,320.436920 84.622147,321.240784 
	C84.782310,320.715363 85.205437,320.041229 85.915909,319.246857 
z"/>
<path fill="#6C76B9" opacity="1.000000" stroke="none" 
	d="
M132.973083,339.284668 
	C132.794434,339.811920 132.323715,340.452240 131.580902,341.230103 
	C131.766220,340.710999 132.223618,340.054352 132.973083,339.284668 
z"/>
<path fill="#6E77B7" opacity="1.000000" stroke="none" 
	d="
M99.983368,344.710327 
	C100.005493,344.113708 100.235405,343.252045 100.700195,342.149017 
	C100.687096,342.753540 100.439117,343.599426 99.983368,344.710327 
z"/>
<path fill="#6C76B9" opacity="1.000000" stroke="none" 
	d="
M116.093185,321.017792 
	C116.265717,321.594666 116.421349,322.615601 116.335831,323.878845 
	C116.088547,323.234741 116.082413,322.348297 116.093185,321.017792 
z"/>
<path fill="#6C76B9" opacity="1.000000" stroke="none" 
	d="
M113.777573,329.161682 
	C113.702988,329.487122 113.375443,329.945618 112.784065,330.536865 
	C112.855026,330.211304 113.189812,329.753052 113.777573,329.161682 
z"/>
<path fill="#707BB5" opacity="1.000000" stroke="none" 
	d="
M242.855423,347.053101 
	C242.622955,347.247070 242.207993,347.320587 241.475723,347.415619 
	C241.663254,347.268982 242.168091,347.100830 242.855423,347.053101 
z"/>
<path fill="#6C76B9" opacity="1.000000" stroke="none" 
	d="
M114.874191,327.195251 
	C114.888496,327.548676 114.728676,328.135742 114.299507,328.875671 
	C114.253456,328.495331 114.476761,327.962097 114.874191,327.195251 
z"/>
<path fill="#6F79B9" opacity="1.000000" stroke="none" 
	d="
M132.043747,411.732666 
	C132.102753,411.409027 132.416580,410.969788 132.971771,410.398438 
	C132.908264,410.716583 132.603409,411.166840 132.043747,411.732666 
z"/>
<path fill="#6C76B9" opacity="1.000000" stroke="none" 
	d="
M115.936478,324.284302 
	C115.945290,324.674927 115.761360,325.360504 115.338333,326.317078 
	C115.314072,325.918488 115.528908,325.248871 115.936478,324.284302 
z"/>
<path fill="#6E77B7" opacity="1.000000" stroke="none" 
	d="
M84.226570,321.359924 
	C84.153908,321.687378 83.838310,322.188690 83.263199,322.838013 
	C83.330338,322.501923 83.656990,322.017822 84.226570,321.359924 
z"/>
<path fill="#6872B9" opacity="1.000000" stroke="none" 
	d="
M115.236008,319.323914 
	C115.228104,319.154175 115.295509,319.167938 115.313278,319.175507 
	C115.283913,319.410767 115.236778,319.638428 115.189651,319.866119 
	C115.207748,319.741943 115.225838,319.617798 115.236008,319.323914 
z"/>
<path fill="#707BB5" opacity="1.000000" stroke="none" 
	d="
M219.875488,374.204712 
	C219.790588,374.539917 219.441635,375.003143 218.813568,375.577301 
	C218.893463,375.236420 219.252441,374.784576 219.875488,374.204712 
z"/>
<path fill="#6C76B9" opacity="1.000000" stroke="none" 
	d="
M130.230774,342.354980 
	C130.157318,342.682556 129.842178,343.193665 129.273102,343.867737 
	C129.342484,343.533295 129.665787,343.035950 130.230774,342.354980 
z"/>
<path fill="#707BB5" opacity="1.000000" stroke="none" 
	d="
M240.023865,355.795593 
	C240.085068,355.494476 240.354111,355.013397 240.861908,354.384644 
	C240.811020,354.696533 240.521378,355.156097 240.023865,355.795593 
z"/>
<path fill="#6F79B9" opacity="1.000000" stroke="none" 
	d="
M105.273773,360.921387 
	C105.632980,361.097046 106.126762,361.599030 106.724655,362.447876 
	C106.355293,362.279083 105.881828,361.763397 105.273773,360.921387 
z"/>
<path fill="#7177B3" opacity="1.000000" stroke="none" 
	d="
M77.215111,330.343414 
	C77.177322,330.697479 76.905266,331.259918 76.376312,332.002502 
	C76.406555,331.639008 76.693695,331.095428 77.215111,330.343414 
z"/>
<path fill="#6C76B9" opacity="1.000000" stroke="none" 
	d="
M131.145676,341.306396 
	C131.162186,341.463165 130.960403,341.821198 130.464325,342.301575 
	C130.422485,342.118530 130.674927,341.813080 131.145676,341.306396 
z"/>
<path fill="#E3E8F7" opacity="1.000000" stroke="none" 
	d="
M99.321274,312.000671 
	C99.333778,311.832092 99.639771,311.600311 100.206436,311.241913 
	C100.182999,311.389374 99.898880,311.663422 99.321274,312.000671 
z"/>
<path fill="#707BB5" opacity="1.000000" stroke="none" 
	d="
M235.898682,354.187073 
	C235.918503,354.326752 235.744629,354.642853 235.320465,355.077026 
	C235.281784,354.917908 235.493378,354.640686 235.898682,354.187073 
z"/>
<path fill="#6E77B7" opacity="1.000000" stroke="none" 
	d="
M90.204071,314.339752 
	C90.224266,314.498505 90.028107,314.855621 89.538895,315.330383 
	C89.493126,315.144684 89.740417,314.841400 90.204071,314.339752 
z"/>
<path fill="#6E77B7" opacity="1.000000" stroke="none" 
	d="
M89.273712,315.418274 
	C89.295990,315.568176 89.112633,315.914581 88.651733,316.389465 
	C88.605484,316.216919 88.836777,315.915863 89.273712,315.418274 
z"/>
<path fill="#6E77B7" opacity="1.000000" stroke="none" 
	d="
M101.045784,341.774994 
	C100.988548,341.633789 101.068649,341.283417 101.401276,340.804840 
	C101.496902,340.973053 101.340019,341.269440 101.045784,341.774994 
z"/>
<path fill="#6C76B9" opacity="1.000000" stroke="none" 
	d="
M134.028076,338.229279 
	C134.040878,338.383820 133.833313,338.718781 133.339600,339.158020 
	C133.304871,338.978119 133.556290,338.693909 134.028076,338.229279 
z"/>
<path fill="#F2F5FA" opacity="1.000000" stroke="none" 
	d="
M97.942993,323.231934 
	C98.056313,323.273956 97.981842,323.508728 97.779892,323.828003 
	C97.710960,323.932922 97.813759,323.445068 97.942993,323.231934 
z"/>
<path fill="#E3E8F7" opacity="1.000000" stroke="none" 
	d="
M92.681702,334.595337 
	C92.753273,334.757721 92.580742,335.130676 92.235672,335.757812 
	C92.187950,335.609955 92.312775,335.207916 92.681702,334.595337 
z"/>
<path fill="#E3E8F7" opacity="1.000000" stroke="none" 
	d="
M93.619881,332.514587 
	C93.699005,332.697266 93.499886,333.084747 93.117767,333.742249 
	C93.070381,333.581329 93.206009,333.150330 93.619881,332.514587 
z"/>
<path fill="#6F79B9" opacity="1.000000" stroke="none" 
	d="
M133.724548,410.285797 
	C133.745911,410.148682 134.009567,409.938141 134.531067,409.695190 
	C134.562561,409.917206 134.288544,410.100403 133.724548,410.285797 
z"/>
<path fill="#6C76B9" opacity="1.000000" stroke="none" 
	d="
M128.847122,344.188354 
	C128.874161,344.330444 128.717331,344.652161 128.305420,345.084351 
	C128.254669,344.919220 128.458969,344.643585 128.847122,344.188354 
z"/>
<path fill="#7177B3" opacity="1.000000" stroke="none" 
	d="
M78.903679,328.204712 
	C78.928734,328.350861 78.755318,328.678741 78.322784,329.129120 
	C78.277512,328.963226 78.491364,328.674866 78.903679,328.204712 
z"/>
<path fill="#7177B3" opacity="1.000000" stroke="none" 
	d="
M78.049377,329.247192 
	C78.082176,329.406494 77.908173,329.769653 77.455017,330.267944 
	C77.398117,330.085785 77.620346,329.768433 78.049377,329.247192 
z"/>
<path fill="#5C6ABB" opacity="1.000000" stroke="none" 
	d="
M225.131592,123.420494 
	C219.439240,123.777939 213.708939,123.615639 207.989273,123.794273 
	C206.444107,123.842522 204.931213,124.923912 202.947098,125.581024 
	C198.600052,120.157837 194.709427,114.684723 190.720978,108.979431 
	C190.229874,108.460243 189.836594,108.173225 189.257843,107.751984 
	C189.072372,107.617767 188.955185,107.175148 189.373932,107.016418 
	C193.086487,105.852203 196.380280,104.846718 199.674072,103.841232 
	C199.585403,103.237061 199.496735,102.632889 199.408081,102.028717 
	C193.938721,102.028717 188.469376,102.028717 182.673981,101.913757 
	C170.176758,93.789513 156.869431,89.908318 142.274628,91.060036 
	C139.621536,91.269394 137.032211,92.286674 133.486755,93.158981 
	C137.844635,95.924767 140.998169,97.926193 144.151703,99.927628 
	C124.378532,100.260498 104.605354,100.593361 84.350616,100.887451 
	C85.310120,98.477196 86.346306,95.699875 88.254295,93.796448 
	C109.546326,72.555466 135.496796,64.616135 164.610229,70.362595 
	C192.247589,75.817703 211.950989,92.748283 224.169174,118.174187 
	C224.858994,119.609650 224.805298,121.402405 225.131592,123.420494 
z"/>
<path fill="#D2D38A" opacity="1.000000" stroke="none" 
	d="
M84.622574,68.990753 
	C83.835213,70.494202 83.064346,71.909569 81.912460,72.866096 
	C81.664619,73.071899 79.645134,71.815208 79.180641,70.869347 
	C78.831284,70.157913 79.638184,67.992813 79.974907,67.982864 
	C81.475418,67.938545 82.991959,68.436470 84.622574,68.990753 
z"/>
<path fill="#404DAA" opacity="1.000000" stroke="none" 
	d="
M113.470230,476.063660 
	C110.573662,475.853027 108.141975,475.583344 104.902138,475.191467 
	C100.496132,474.660217 96.874199,474.395660 93.307274,473.801025 
	C89.800163,473.216400 86.348892,472.296814 83.330765,471.583862 
	C103.867897,470.659119 123.947372,469.674744 144.465759,468.716919 
	C158.194458,468.706421 171.484238,468.669312 185.256775,468.721069 
	C191.875061,468.850677 198.014404,469.023041 204.143448,468.843506 
	C205.757629,468.796234 207.339966,467.661194 208.936935,467.025665 
	C212.795532,467.162476 216.654144,467.299316 220.471603,467.731445 
	C219.802902,468.288300 219.175339,468.549805 217.181198,469.380737 
	C232.113998,471.079681 245.529251,472.760834 258.979889,474.081512 
	C267.838928,474.951324 276.748901,475.301941 285.636078,475.885071 
	C228.402435,475.924927 171.168777,475.964752 113.470230,476.063660 
z"/>
<path fill="#7887CF" opacity="1.000000" stroke="none" 
	d="
M82.873108,471.524231 
	C86.348892,472.296814 89.800163,473.216400 93.307274,473.801025 
	C96.874199,474.395660 100.496132,474.660217 104.503868,475.153015 
	C99.939102,475.676971 94.964439,476.117249 89.653137,476.421692 
	C83.765274,475.574493 78.231750,474.639954 72.659157,474.198334 
	C61.078251,473.280518 49.476635,472.624023 37.429352,471.794250 
	C36.978832,471.120392 36.982494,470.512421 36.984596,469.600677 
	C50.076458,470.169128 63.169880,471.041321 76.976044,471.936462 
	C78.822708,471.800476 79.956650,471.641541 81.090584,471.482574 
	C81.488533,471.510803 81.886482,471.539001 82.597717,471.553528 
	C82.911011,471.539795 82.873108,471.524261 82.873108,471.524231 
z"/>
<path fill="#717ED2" opacity="1.000000" stroke="none" 
	d="
M285.972870,475.914001 
	C276.748901,475.301941 267.838928,474.951324 258.979889,474.081512 
	C245.529251,472.760834 232.113998,471.079681 217.181198,469.380737 
	C219.175339,468.549805 219.802902,468.288300 220.720123,467.981049 
	C243.404068,469.917572 265.798370,471.899841 288.608704,473.957825 
	C288.119690,474.670013 287.214691,475.306488 285.972870,475.914001 
z"/>
<path fill="#6D7BD1" opacity="1.000000" stroke="none" 
	d="
M83.330765,471.583862 
	C82.873108,471.524261 82.911011,471.539795 82.897018,471.552246 
	C102.970268,470.081879 123.057503,468.599060 143.597549,467.401489 
	C144.042526,468.021301 144.034683,468.355835 144.026840,468.690369 
	C123.947372,469.674744 103.867897,470.659119 83.330765,471.583862 
z"/>
<path fill="#7282D3" opacity="1.000000" stroke="none" 
	d="
M144.465759,468.716919 
	C144.034683,468.355835 144.042526,468.021301 144.058609,467.435547 
	C144.066864,467.184296 144.017105,467.026886 144.447754,466.984161 
	C148.248062,466.902954 151.617737,466.864471 154.987411,466.825958 
	C164.654282,466.911011 174.321167,466.996063 184.440247,467.354340 
	C184.852982,467.962433 184.813492,468.297333 184.773987,468.632233 
	C171.484238,468.669312 158.194458,468.706421 144.465759,468.716919 
z"/>
<path fill="#5D6CBD" opacity="1.000000" stroke="none" 
	d="
M185.256775,468.721069 
	C184.813492,468.297333 184.852982,467.962433 184.903107,467.373901 
	C192.613708,467.093170 200.313644,467.066071 208.475266,467.032318 
	C207.339966,467.661194 205.757629,468.796234 204.143448,468.843506 
	C198.014404,469.023041 191.875061,468.850677 185.256775,468.721069 
z"/>
<path fill="#3B49A9" opacity="1.000000" stroke="none" 
	d="
M154.837891,466.503906 
	C151.617737,466.864471 148.248062,466.902954 144.418243,466.907074 
	C147.128204,463.149384 150.675339,462.921021 154.837891,466.503906 
z"/>
<path fill="#404DAA" opacity="1.000000" stroke="none" 
	d="
M80.962372,471.183899 
	C79.956650,471.641541 78.822708,471.800476 77.341553,471.912842 
	C77.879745,469.995117 78.800789,468.263367 80.962372,471.183899 
z"/>
<path fill="#FAEC5F" opacity="1.000000" stroke="none" 
	d="
M144.106232,99.969711 
	C140.998169,97.926193 137.844635,95.924767 133.486755,93.158981 
	C137.032211,92.286674 139.621536,91.269394 142.274628,91.060036 
	C156.869431,89.908318 170.176758,93.789513 182.813004,102.204727 
	C185.170425,104.132149 187.062805,105.653648 188.955185,107.175148 
	C188.955185,107.175148 189.072372,107.617767 189.368805,107.974182 
	C190.049759,108.624268 190.434280,108.917938 190.818802,109.211609 
	C194.709427,114.684723 198.600052,120.157837 202.755768,125.862747 
	C206.164963,135.589066 208.803986,145.153900 208.083374,155.336472 
	C207.341949,165.813110 204.663208,175.623032 198.486908,184.632172 
	C193.851730,174.070480 186.631592,166.380219 174.290436,164.007385 
	C176.206314,152.126938 175.100906,140.653168 170.455383,128.912170 
	C169.781265,127.872826 169.400391,127.400146 169.019501,126.927475 
	C169.019501,126.927475 168.995193,126.998795 169.055374,126.686127 
	C168.759140,125.862556 168.402740,125.351654 168.046341,124.840744 
	C168.046341,124.840744 168.087830,124.970345 168.113037,124.588844 
	C164.562225,116.789047 159.795700,110.327522 153.061295,105.447556 
	C151.622131,104.278603 150.182983,103.109642 148.253677,101.638458 
	C147.214294,101.143967 146.665070,100.951698 146.115845,100.759430 
	C146.115845,100.759430 146.003586,100.846504 145.935272,100.590469 
	C145.235474,100.197906 144.604004,100.061371 143.972519,99.924835 
	C143.972519,99.924835 144.060776,100.011810 144.106232,99.969711 
z"/>
<path fill="#5D6BBB" opacity="1.000000" stroke="none" 
	d="
M153.000214,105.827332 
	C159.795700,110.327522 164.562225,116.789047 168.177811,124.568008 
	C163.391235,123.955956 158.596588,122.368271 153.733429,122.119461 
	C134.980453,121.160011 116.202583,120.695564 97.442490,119.856514 
	C94.964783,119.745689 92.536148,118.537720 90.084778,117.837883 
	C90.077156,117.314545 90.069534,116.791214 90.061913,116.267876 
	C92.489059,115.557594 94.876183,114.450829 97.349823,114.201118 
	C113.880386,112.532372 130.439560,111.141701 146.959671,109.381279 
	C149.041931,109.159393 150.950241,107.305084 153.000214,105.827332 
z"/>
<path fill="#5C6ABB" opacity="1.000000" stroke="none" 
	d="
M146.196594,100.981628 
	C146.665070,100.951698 147.214294,101.143967 147.940125,101.577263 
	C147.503601,101.613464 146.890472,101.408646 146.196594,100.981628 
z"/>
<path fill="#5D6BBB" opacity="1.000000" stroke="none" 
	d="
M169.138290,127.201897 
	C169.400391,127.400146 169.781265,127.872826 170.197510,128.658798 
	C169.907623,128.473511 169.582352,127.974907 169.138290,127.201897 
z"/>
<path fill="#5D6BBB" opacity="1.000000" stroke="none" 
	d="
M168.149078,125.125168 
	C168.402740,125.351654 168.759140,125.862556 169.091019,126.698318 
	C168.794922,126.485313 168.523376,125.947441 168.149078,125.125168 
z"/>
<path fill="#5C6ABB" opacity="1.000000" stroke="none" 
	d="
M144.219757,100.089043 
	C144.604004,100.061371 145.235474,100.197906 145.978790,100.646622 
	C145.549408,100.723610 145.008209,100.488426 144.219757,100.089043 
z"/>
<path fill="#EFE773" opacity="1.000000" stroke="none" 
	d="
M172.519974,206.488785 
	C163.009308,213.361679 140.980835,215.586929 133.108261,210.243347 
	C135.245331,209.107269 137.229614,208.052414 139.582230,206.740036 
	C150.650223,206.493637 161.349884,206.504745 172.519974,206.488785 
z"/>
<path fill="#6570BB" opacity="1.000000" stroke="none" 
	d="
M129.977051,386.969849 
	C132.099319,384.752075 133.967651,382.789368 135.835983,380.826660 
	C136.336914,381.090759 136.837845,381.354889 137.338791,381.619019 
	C136.290558,385.535339 135.668625,389.635010 134.083557,393.320435 
	C132.205872,397.686188 129.649124,401.792816 127.055580,405.797272 
	C126.300255,406.963531 124.412300,407.396240 123.043518,408.165161 
	C122.310646,406.620514 120.696701,404.857452 121.014969,403.573334 
	C121.868767,400.128601 123.319450,396.768036 124.978233,393.607727 
	C126.195374,391.288818 128.115997,389.339142 129.977051,386.969849 
z"/>
<path fill="#6C76B9" opacity="1.000000" stroke="none" 
	d="
M138.347458,359.342133 
	C135.738495,362.771393 133.129517,366.200684 130.520554,369.629944 
	C129.964447,369.283936 129.408325,368.937958 128.852219,368.591949 
	C128.423737,359.486694 133.975754,352.782806 139.099030,345.588867 
	C139.345322,345.369843 139.677582,345.686157 139.733765,346.175293 
	C138.442688,348.888153 137.158096,351.152985 135.732819,353.325500 
	C133.814667,356.249237 134.137405,358.194305 137.999908,358.984619 
	C138.115692,359.103851 138.347458,359.342133 138.347458,359.342133 
z"/>
<path fill="#707BB3" opacity="1.000000" stroke="none" 
	d="
M152.694885,357.158447 
	C154.057281,357.004730 155.160812,357.049225 156.547745,357.024414 
	C155.029617,358.678467 153.228088,360.401794 151.426544,362.125122 
	C150.987411,361.737274 150.548279,361.349396 150.109146,360.961548 
	C150.884766,359.759918 151.660385,358.558289 152.694885,357.158447 
z"/>
<path fill="#6C76B9" opacity="1.000000" stroke="none" 
	d="
M142.691772,352.633728 
	C141.400223,354.713074 140.108658,356.792419 138.582275,359.106964 
	C138.347458,359.342133 138.115692,359.103851 138.076828,358.650635 
	C139.356522,356.130005 140.675079,354.062592 142.166016,352.157166 
	C142.338394,352.319183 142.691788,352.633728 142.691772,352.633728 
z"/>
<path fill="#6C76B9" opacity="1.000000" stroke="none" 
	d="
M146.218170,347.194580 
	C145.726898,348.081055 145.235596,348.967499 144.400513,349.953125 
	C144.056717,350.052307 143.849930,349.868530 143.941071,349.572205 
	C144.636398,348.468781 145.240570,347.661682 145.938080,346.939606 
	C146.031433,347.024628 146.218170,347.194580 146.218170,347.194580 
z"/>
<path fill="#6C76B9" opacity="1.000000" stroke="none" 
	d="
M144.160263,350.144043 
	C143.882889,350.905121 143.501968,351.574432 142.906433,352.438721 
	C142.691788,352.633728 142.338394,352.319183 142.294556,351.899719 
	C142.783798,350.943024 143.316864,350.405792 143.849930,349.868530 
	C143.849930,349.868530 144.056717,350.052307 144.160263,350.144043 
z"/>
<path fill="#6C76B9" opacity="1.000000" stroke="none" 
	d="
M147.367188,345.321594 
	C147.234802,345.921783 146.959488,346.400726 146.451172,347.037140 
	C146.218170,347.194580 146.031433,347.024628 146.057068,346.693481 
	C146.367477,345.894775 146.652267,345.427185 146.937042,344.959564 
	C146.937042,344.959564 147.224274,345.200348 147.367188,345.321594 
z"/>
<path fill="#707BB3" opacity="1.000000" stroke="none" 
	d="
M155.757599,351.178162 
	C155.757156,351.524414 155.510010,352.037933 155.087372,352.779236 
	C155.111557,352.453125 155.311234,351.899261 155.757599,351.178162 
z"/>
<path fill="#707BB3" opacity="1.000000" stroke="none" 
	d="
M154.712952,353.090088 
	C154.724167,353.439972 154.491180,353.965973 154.085052,354.721832 
	C154.097519,354.389862 154.283127,353.828003 154.712952,353.090088 
z"/>
<path fill="#707BB3" opacity="1.000000" stroke="none" 
	d="
M156.744598,349.630859 
	C156.782700,349.783386 156.575302,350.139191 156.189804,350.747314 
	C156.174164,350.611115 156.336624,350.222626 156.744598,349.630859 
z"/>
<path fill="#6974BB" opacity="1.000000" stroke="none" 
	d="
M187.044708,313.889771 
	C191.093735,305.645996 194.757767,297.569305 199.212784,289.955414 
	C201.800491,285.532867 205.658264,281.853455 209.401871,277.281036 
	C211.773987,286.600922 195.090469,318.498199 185.788956,324.011841 
	C186.200043,320.675659 186.595856,317.463409 187.044708,313.889771 
z"/>
<path fill="#5C6CBF" opacity="1.000000" stroke="none" 
	d="
M147.009033,344.666656 
	C146.652267,345.427185 146.367477,345.894775 145.963715,346.608459 
	C145.240570,347.661682 144.636398,348.468781 143.941071,349.572205 
	C143.316864,350.405792 142.783798,350.943024 142.122192,351.737732 
	C140.675079,354.062592 139.356522,356.130005 137.961044,358.531403 
	C134.137405,358.194305 133.814667,356.249237 135.732819,353.325500 
	C137.158096,351.152985 138.442688,348.888153 139.898529,346.334839 
	C141.499176,344.792847 142.918213,343.473602 144.499710,342.391937 
	C147.158783,340.573273 147.525421,342.008179 147.009033,344.666656 
z"/>
<path fill="#5D6BC0" opacity="1.000000" stroke="none" 
	d="
M158.938904,352.181458 
	C158.897919,352.269897 158.646530,352.542114 158.209808,353.024567 
	C158.259140,352.944946 158.493820,352.655121 158.938904,352.181458 
z"/>
<path fill="#5C6CBF" opacity="1.000000" stroke="none" 
	d="
M148.498413,339.495575 
	C148.504044,339.513641 148.492783,339.477509 148.498413,339.495575 
z"/>
<path fill="#5D6BC0" opacity="1.000000" stroke="none" 
	d="
M140.497284,370.513031 
	C140.039352,370.227997 139.581116,369.917572 139.122864,369.607147 
	C139.350861,369.350616 139.578857,369.094086 139.806839,368.837555 
	C139.968948,369.247742 140.131058,369.657959 140.420471,370.277527 
	C140.547806,370.486938 140.496964,370.487671 140.497284,370.513031 
z"/>
<path fill="#5D6BC0" opacity="1.000000" stroke="none" 
	d="
M140.493500,366.498871 
	C140.513641,366.492096 140.473343,366.505646 140.493500,366.498871 
z"/>
<path fill="#6E79B7" opacity="1.000000" stroke="none" 
	d="
M189.373932,107.016418 
	C187.062805,105.653648 185.170425,104.132149 183.139038,102.319687 
	C188.469376,102.028717 193.938721,102.028717 199.408081,102.028717 
	C199.496735,102.632889 199.585403,103.237061 199.674072,103.841232 
	C196.380280,104.846718 193.086487,105.852203 189.373932,107.016418 
z"/>
<path fill="#6E79B7" opacity="1.000000" stroke="none" 
	d="
M190.720978,108.979431 
	C190.434280,108.917938 190.049759,108.624268 189.554276,108.108406 
	C189.836594,108.173225 190.229874,108.460243 190.720978,108.979431 
z"/>
</svg>